<svg id="Camada_1" data-name="Camada 1" xmlns="http://www.w3.org/2000/svg" xmlns:xlink="http://www.w3.org/1999/xlink" viewBox="0 0 1024 1024"><defs><style>.cls-1{fill:url(#Gradiente_sem_nome_52);}.cls-2{fill:#fff;}</style><linearGradient id="Gradiente_sem_nome_52" x1="512" x2="512" y2="1024" gradientUnits="userSpaceOnUse"><stop offset="0" stop-color="#00b5ff"/><stop offset="1" stop-color="#0059ff"/></linearGradient></defs><rect class="cls-1" width="1024" height="1024"/><path class="cls-2" d="M843.63288,474.074c-4.186-71.645-90.497-129.27428-198.12232-132.457v-.14532H552.58142v-2.95589a15.20879,15.20879,0,0,0-15.20881-15.2088H486.62732a15.20882,15.20882,0,0,0-15.2088,15.2088v2.95589H378.48944v.14532c-107.62536,3.18272-193.93636,60.812-198.12232,132.457h-.17563V689.50735A22.393,22.393,0,0,0,183.183,700.693c51.31342-39.59866,179.871-67.67792,330.36706-67.67792,148.36178,0,275.396,27.28959,328.13114,66.00118a22.39734,22.39734,0,0,0,2.12732-9.50893V474.074ZM392.9039,605.538a79.33281,79.33281,0,1,1,79.33281-79.3328A79.33277,79.33277,0,0,1,392.9039,605.538Zm238.1922,0a79.33281,79.33281,0,1,1,79.3328-79.3328A79.33277,79.33277,0,0,1,631.0961,605.538Z"/></svg>