<svg id="Camada_1" data-name="Camada 1" xmlns="http://www.w3.org/2000/svg" xmlns:xlink="http://www.w3.org/1999/xlink" viewBox="0 0 1024 1024"><defs><style>.cls-1{fill:url(#Gradiente_sem_nome_52);}.cls-2{fill:#fff;}</style><linearGradient id="Gradiente_sem_nome_52" x1="512" x2="512" y2="1024" gradientUnits="userSpaceOnUse"><stop offset="0" stop-color="#00b5ff"/><stop offset="1" stop-color="#0059ff"/></linearGradient></defs><rect class="cls-1" width="1024" height="1024"/><path class="cls-2" d="M818.8375,476.90962c-3.873-66.2883-83.73073-119.60875-183.3092-122.55351v-.13445H549.54724v-2.73489a14.07167,14.07167,0,0,0-14.07168-14.07168H488.52437a14.07171,14.07171,0,0,0-14.07168,14.07168v2.73489h-85.981v.13445c-99.57847,2.94476-179.43621,56.26521-183.3092,122.55351H205V676.23556a20.71873,20.71873,0,0,0,2.76783,10.34935c47.47684-36.638,166.42244-62.61781,305.66633-62.61781,137.26913,0,254.80532,25.24921,303.59758,61.06643A20.72282,20.72282,0,0,0,819,676.23556V476.90962ZM401.80843,598.54439a73.40129,73.40129,0,1,1,73.40128-73.40129A73.40126,73.40126,0,0,1,401.80843,598.54439Zm220.38314,0a73.40129,73.40129,0,1,1,73.40129-73.40129A73.40126,73.40126,0,0,1,622.19157,598.54439Z"/></svg>