<svg id="Camada_1" data-name="Camada 1" xmlns="http://www.w3.org/2000/svg" viewBox="0 0 120.66407 41"><defs><style>.cls-1{fill:#fff;}.cls-1,.cls-3{stroke:#000;stroke-miterlimit:10;}.cls-2{fill:#00db29;fill-rule:evenodd;}.cls-3{stroke-width:0.3px;}</style></defs><rect class="cls-1" x="0.5" y="0.5" width="119.66407" height="40" rx="8"/><path class="cls-2" d="M479.45239,516.80925h-.04083a1.42,1.42,0,0,1-1.41877-1.42115v-6.12373a1.4199,1.4199,0,0,1,1.41877-1.42115h.04083a1.42,1.42,0,0,1,1.41885,1.42115v6.12373A1.42,1.42,0,0,1,479.45239,516.80925Zm-3.31267,2.26194h-1.33747l.07919,3.15777a1.43927,1.43927,0,1,1-2.87854,0l-.04824-3.15777h-1.91543l.01868,3.15777a1.43927,1.43927,0,1,1-2.87854,0l.01227-3.15777h-1.19272a1.31053,1.31053,0,0,1-1.30909-1.31192V508.1555h12.759v9.60377A1.31053,1.31053,0,0,1,476.13972,519.07119Zm-8.12751-16.52866s-1.12424-1.95241-1.22184-2.106.16836-.27153.23346-.15591c.06509.11554,1.26477,2.11913,1.26477,2.11913a6.38222,6.38222,0,0,1,5.45-.05283s1.23419-1.97237,1.29846-2.0663c.06427-.094.28948.05072.23336.15591-.056.10511-1.23767,2.05569-1.23767,2.05569a6.39645,6.39645,0,0,1,3.38719,5.05149l-12.70568.04843A6.39562,6.39562,0,0,1,468.01221,502.54253Zm5.897,2.80484a.58469.58469,0,1,0-.58273-.58464A.58361.58361,0,0,0,473.90918,505.34737Zm-5.83536,0a.58469.58469,0,1,0-.58382-.58464A.58424.58424,0,0,0,468.07382,505.34737Zm-5.42639,11.46188h-.04083a1.42,1.42,0,0,1-1.41877-1.42115v-6.12373a1.41989,1.41989,0,0,1,1.41877-1.42115h.04083a1.41989,1.41989,0,0,1,1.41876,1.42115v6.12373A1.42,1.42,0,0,1,462.64743,516.80925Z" transform="translate(-451.40423 -491.45274)"/><path class="cls-3" d="M492.02435,506.49888a1.75285,1.75285,0,0,0,.627-.2832,1.45,1.45,0,0,0,.41992-.53321,1.67323,1.67323,0,0,0,.16992-.748,1.39174,1.39174,0,0,0-.2793-.86719,1.49653,1.49653,0,0,0-.79883-.51953,1.42243,1.42243,0,0,0,.60157-.52344,1.29931,1.29931,0,0,0,.19922-.69141,1.40854,1.40854,0,0,0-.22461-.75586,1.35531,1.35531,0,0,0-.6211-.53515,2.66149,2.66149,0,0,0-1.05273-.17383h-2.14844v5.72656h2.18359A3.80525,3.80525,0,0,0,492.02435,506.49888Zm-2.34961-4.95508h1.14453a3.26939,3.26939,0,0,1,.8711.08008.69123.69123,0,0,1,.39062.29687.92.92,0,0,1,.13672.502.82116.82116,0,0,1-.14648.5.80177.80177,0,0,1-.43555.28515,2.75638,2.75638,0,0,1-.72266.06641h-1.23828Zm0,2.40625H490.999a2.8148,2.8148,0,0,1,.83789.0957.866.866,0,0,1,.45508.332.95224.95224,0,0,1,.16406.55664.99456.99456,0,0,1-.11328.48242.83086.83086,0,0,1-.28906.31836,1.23994,1.23994,0,0,1-.4375.15625,3.30635,3.30635,0,0,1-.51563.02734h-1.42578Z" transform="translate(-451.40423 -491.45274)"/><path class="cls-3" d="M495.58881,504.204a4.961,4.961,0,0,0-.625.10547,1.71411,1.71411,0,0,0-.50586.23046,1.15649,1.15649,0,0,0-.502.96094,1.10317,1.10317,0,0,0,.36719.85352,1.50826,1.50826,0,0,0,1.05078.334,2.1692,2.1692,0,0,0,.77539-.13672,2.62546,2.62546,0,0,0,.752-.46875,1.499,1.499,0,0,0,.14062.51172h.73438a1.562,1.562,0,0,1-.17774-.498,9.98626,9.98626,0,0,1-.04492-1.24024v-.9375a3.9572,3.9572,0,0,0-.03516-.64844,1.10578,1.10578,0,0,0-.21875-.47851,1.13746,1.13746,0,0,0-.48828-.31446,2.48794,2.48794,0,0,0-.86328-.125,2.77023,2.77023,0,0,0-.94141.14649,1.34975,1.34975,0,0,0-.62109.418,1.70545,1.70545,0,0,0-.30859.71289l.6875.09375a1.061,1.061,0,0,1,.34961-.61524,1.24364,1.24364,0,0,1,.73242-.17382,1.17787,1.17787,0,0,1,.80078.23828.776.776,0,0,1,.19922.60547c0,.02587-.00147.0874-.00391.18359A6.43357,6.43357,0,0,1,495.58881,504.204Zm1.2539.5664a1.69488,1.69488,0,0,1-.11328.70313,1.09709,1.09709,0,0,1-.46484.48633,1.44792,1.44792,0,0,1-.72266.17773.91627.91627,0,0,1-.623-.1875.62149.62149,0,0,1-.11523-.80273.61341.61341,0,0,1,.27734-.22852,2.63668,2.63668,0,0,1,.61328-.14062,5.16367,5.16367,0,0,0,1.14844-.26563Z" transform="translate(-451.40423 -491.45274)"/><rect class="cls-3" x="47.24317" y="9.41528" width="0.70313" height="0.80859"/><rect class="cls-3" x="47.24317" y="10.99341" width="0.70313" height="4.14844"/><path class="cls-3" d="M502.12006,505.30552l.85156,1.28906h.86328l-1.543-2.19531,1.43359-1.95313h-.83984l-.69922.98047q-.14429.19923-.3164.457-.10914-.1875-.28907-.46484l-.63672-.97266h-.8789l1.40234,1.99219-1.51562,2.15625h.85156l1.08984-1.63672Z" transform="translate(-451.40423 -491.45274)"/><path class="cls-3" d="M507.78021,504.8563v-.9375a3.9587,3.9587,0,0,0-.03515-.64844,1.106,1.106,0,0,0-.21875-.47851,1.1375,1.1375,0,0,0-.48829-.31446,2.48794,2.48794,0,0,0-.86328-.125,2.77013,2.77013,0,0,0-.9414.14649,1.34973,1.34973,0,0,0-.6211.418,1.70558,1.70558,0,0,0-.30859.71289l.6875.09375a1.061,1.061,0,0,1,.34961-.61524,1.24364,1.24364,0,0,1,.73242-.17382,1.17785,1.17785,0,0,1,.80078.23828.776.776,0,0,1,.19922.60547c0,.02587-.00146.0874-.00391.18359a6.43357,6.43357,0,0,1-1.2539.24219,4.961,4.961,0,0,0-.625.10547,1.71411,1.71411,0,0,0-.50586.23046,1.15645,1.15645,0,0,0-.50195.96094,1.10316,1.10316,0,0,0,.36718.85352,1.50826,1.50826,0,0,0,1.05078.334,2.1693,2.1693,0,0,0,.7754-.13672,2.62556,2.62556,0,0,0,.75195-.46875,1.499,1.499,0,0,0,.14062.51172h.73438a1.562,1.562,0,0,1-.17774-.498A9.98626,9.98626,0,0,1,507.78021,504.8563Zm-.71094-.08594a1.69471,1.69471,0,0,1-.11328.70313,1.097,1.097,0,0,1-.46484.48633,1.44792,1.44792,0,0,1-.72266.17773.91626.91626,0,0,1-.623-.1875.62151.62151,0,0,1-.11524-.80273.61344.61344,0,0,1,.27735-.22852,2.63655,2.63655,0,0,1,.61328-.14062,5.1637,5.1637,0,0,0,1.14843-.26563Z" transform="translate(-451.40423 -491.45274)"/><path class="cls-3" d="M510.35834,503.079a1.006,1.006,0,0,1,.51562.15234l.24219-.65234a1.37293,1.37293,0,0,0-.72266-.22657.78074.78074,0,0,0-.45117.14063,1.71652,1.71652,0,0,0-.44726.582v-.62891h-.63282v4.14844h.70313v-2.17187a2.73864,2.73864,0,0,1,.11719-.82032.75048.75048,0,0,1,.26171-.38476A.6706.6706,0,0,1,510.35834,503.079Z" transform="translate(-451.40423 -491.45274)"/><path class="cls-3" d="M515.15131,504.204a4.961,4.961,0,0,0-.625.10547,1.71411,1.71411,0,0,0-.50586.23046,1.15649,1.15649,0,0,0-.502.96094,1.10317,1.10317,0,0,0,.36719.85352,1.50826,1.50826,0,0,0,1.05078.334,2.16536,2.16536,0,0,0,.77539-.13672,2.6125,2.6125,0,0,0,.752-.46875,1.52143,1.52143,0,0,0,.14062.51172h.73438a1.586,1.586,0,0,1-.17774-.498,10.08862,10.08862,0,0,1-.04492-1.24024v-.9375a3.9572,3.9572,0,0,0-.03516-.64844,1.09463,1.09463,0,0,0-.21875-.47851,1.1314,1.1314,0,0,0-.48828-.31446,2.48417,2.48417,0,0,0-.86328-.125,2.77222,2.77222,0,0,0-.94141.14649,1.34975,1.34975,0,0,0-.62109.418,1.70545,1.70545,0,0,0-.30859.71289l.6875.09375a1.061,1.061,0,0,1,.34961-.61524,1.24468,1.24468,0,0,1,.73242-.17382,1.177,1.177,0,0,1,.80078.23828.776.776,0,0,1,.19922.60547c0,.02587-.001.0874-.00391.18359A6.418,6.418,0,0,1,515.15131,504.204Zm1.2539.5664a1.68685,1.68685,0,0,1-.11328.70313,1.09446,1.09446,0,0,1-.46484.48633,1.44662,1.44662,0,0,1-.72266.17773.91627.91627,0,0,1-.62305-.1875.62149.62149,0,0,1-.11523-.80273.61341.61341,0,0,1,.27734-.22852,2.63668,2.63668,0,0,1,.61328-.14062,5.14984,5.14984,0,0,0,1.14844-.26563Z" transform="translate(-451.40423 -491.45274)"/><path class="cls-3" d="M520.915,506.41685a1.72537,1.72537,0,0,0,.66406-.78125,2.77374,2.77374,0,0,0,.22852-1.14649,2.82213,2.82213,0,0,0-.207-1.09179,1.67731,1.67731,0,0,0-.61328-.77149,1.639,1.639,0,0,0-.9375-.27344,1.40514,1.40514,0,0,0-.6914.15821,1.579,1.579,0,0,0-.51172.47461v-.53907H518.206v5.73829h.70313v-2.01954a1.441,1.441,0,0,0,.459.375,1.3194,1.3194,0,0,0,.63086.14844A1.70286,1.70286,0,0,0,520.915,506.41685Zm-1.74805-.68946a1.80135,1.80135,0,0,1-.32422-1.18359,1.87874,1.87874,0,0,1,.34571-1.2207,1.01249,1.01249,0,0,1,.79492-.41992.98237.98237,0,0,1,.77929.39453,1.83085,1.83085,0,0,1,.32618,1.1875,1.88077,1.88077,0,0,1-.334,1.22851,1.01693,1.01693,0,0,1-.80273.39649A.9956.9956,0,0,1,519.16693,505.72739Z" transform="translate(-451.40423 -491.45274)"/><path class="cls-3" d="M523.35834,506.16489a1.44087,1.44087,0,0,0,.459.375,1.32215,1.32215,0,0,0,.63086.14844,1.70286,1.70286,0,0,0,.916-.27148,1.72537,1.72537,0,0,0,.66406-.78125,2.77373,2.77373,0,0,0,.22851-1.14649,2.82212,2.82212,0,0,0-.207-1.09179,1.67731,1.67731,0,0,0-.61328-.77149,1.639,1.639,0,0,0-.9375-.27344,1.40774,1.40774,0,0,0-.6914.15821,1.579,1.579,0,0,0-.51172.47461v-.53907h-.64063v5.73829h.70313Zm.27929-2.84179a1.01252,1.01252,0,0,1,.79493-.41992.98238.98238,0,0,1,.77929.39453,1.83085,1.83085,0,0,1,.32617,1.1875,1.88077,1.88077,0,0,1-.334,1.22851,1.017,1.017,0,0,1-.80273.39649.99282.99282,0,0,1-.78516-.38282,1.807,1.807,0,0,1-.32422-1.18359A1.8788,1.8788,0,0,1,523.63763,503.3231Z" transform="translate(-451.40423 -491.45274)"/><path class="cls-3" d="M493.00531,510.66929,488.332,522.83823h1.71l1.33643-3.68554h5.08838l1.41943,3.68554h1.83447l-4.98047-12.16894Zm-1.16211,7.17187,1.33643-3.56933a15.48922,15.48922,0,0,0,.65576-2.32422q.282.988.86328,2.52344l1.27,3.37011Z" transform="translate(-451.40423 -491.45274)"/><path class="cls-3" d="M507.43207,514.8607a2.30956,2.30956,0,0,0-1-.751,3.69131,3.69131,0,0,0-1.46533-.28613,3.1697,3.1697,0,0,0-2.80567,1.45214V514.0228h-1.34472v8.81543h1.49414v-4.81445a2.99164,2.99164,0,0,1,.69287-2.2998,2.425,2.425,0,0,1,1.648-.60547,1.96714,1.96714,0,0,1,1.0415.26953,1.43493,1.43493,0,0,1,.61865.72266,4.0178,4.0178,0,0,1,.17432,1.36523v5.3623h1.49414v-5.42089a8.56563,8.56563,0,0,0-.083-1.45215A2.88579,2.88579,0,0,0,507.43207,514.8607Z" transform="translate(-451.40423 -491.45274)"/><path class="cls-3" d="M515.89056,515.0355a2.938,2.938,0,0,0-2.43212-1.21191,3.52749,3.52749,0,0,0-1.96729.57226,3.47285,3.47285,0,0,0-1.31982,1.64844,6.26065,6.26065,0,0,0-.44,2.39453,5.61631,5.61631,0,0,0,.48536,2.39453,3.82565,3.82565,0,0,0,1.37011,1.62305,3.46051,3.46051,0,0,0,1.938.58105,2.74235,2.74235,0,0,0,2.46533-1.31152v1.1123h1.38672V510.66929h-1.48633Zm-.56054,5.97266a2.11443,2.11443,0,0,1-1.66407.80078,2.15131,2.15131,0,0,1-1.685-.83887,3.82543,3.82543,0,0,1-.71387-2.53125,4.0151,4.0151,0,0,1,.66846-2.56543,2.07044,2.07044,0,0,1,1.66406-.81348,2.14623,2.14623,0,0,1,1.71875.84668,4.14618,4.14618,0,0,1,.69726,2.65625A3.69276,3.69276,0,0,1,515.33,521.00816Z" transform="translate(-451.40423 -491.45274)"/><path class="cls-3" d="M522.00482,514.12241a3.63716,3.63716,0,0,0-.95019,1.23633V514.0228h-1.34571v8.81543h1.49414V518.223a5.81965,5.81965,0,0,1,.25-1.74316,1.59418,1.59418,0,0,1,.55567-.81739,1.41818,1.41818,0,0,1,.87988-.29492,2.137,2.137,0,0,1,1.0957.32324l.51465-1.38574a2.913,2.913,0,0,0-1.53613-.48144A1.658,1.658,0,0,0,522.00482,514.12241Z" transform="translate(-451.40423 -491.45274)"/><path class="cls-3" d="M528.96478,513.82359a4.10038,4.10038,0,0,0-2.77246.97949A4.54376,4.54376,0,0,0,524.831,518.43,4.74049,4.74049,0,0,0,525.9726,521.85a3.95916,3.95916,0,0,0,2.99218,1.1875,4.31788,4.31788,0,0,0,2.12891-.54,3.6134,3.6134,0,0,0,1.48633-1.51464,5.83915,5.83915,0,0,0,.51074-2.67676,4.52923,4.52923,0,0,0-1.1543-3.291A3.95279,3.95279,0,0,0,528.96478,513.82359Zm1.85059,7.13867a2.45907,2.45907,0,0,1-3.71.0039,4.71153,4.71153,0,0,1,0-5.06738,2.46226,2.46226,0,0,1,3.70605.00391,3.64264,3.64264,0,0,1,.74317,2.47754A3.84057,3.84057,0,0,1,530.81537,520.96226Z" transform="translate(-451.40423 -491.45274)"/><rect class="cls-3" x="83.44532" y="22.57007" width="1.49414" height="8.81543"/><rect class="cls-3" x="83.44532" y="19.21655" width="1.49414" height="1.71826"/><path class="cls-3" d="M544.23822,510.66929v4.36621a2.938,2.938,0,0,0-2.43164-1.21191,3.529,3.529,0,0,0-1.96777.57226,3.46632,3.46632,0,0,0-1.31934,1.64844,6.25142,6.25142,0,0,0-.44043,2.39453,5.61646,5.61646,0,0,0,.48535,2.39453,3.82574,3.82574,0,0,0,1.37012,1.62305,3.46093,3.46093,0,0,0,1.93848.58105,2.74209,2.74209,0,0,0,2.46484-1.31152v1.1123h1.38672V510.66929Zm-.56055,10.33887a2.11371,2.11371,0,0,1-1.66406.80078,2.153,2.153,0,0,1-1.68555-.83887,3.82829,3.82829,0,0,1-.71289-2.53125,4.01828,4.01828,0,0,1,.668-2.56543,2.07044,2.07044,0,0,1,1.66406-.81348,2.14554,2.14554,0,0,1,1.71875.84668,4.14612,4.14612,0,0,1,.69727,2.65625A3.69275,3.69275,0,0,1,543.67767,521.00816Z" transform="translate(-451.40423 -491.45274)"/></svg>