<svg id="Camada_1" data-name="Camada 1" xmlns="http://www.w3.org/2000/svg" viewBox="0 0 120.66407 41"><defs><style>.cls-1,.cls-4{fill:#fff;}.cls-1{stroke:#000;stroke-miterlimit:10;}.cls-2{fill:#3498db;}.cls-3,.cls-4{fill-rule:evenodd;}.cls-3{isolation:isolate;opacity:0.3;}</style></defs><rect class="cls-1" x="0.5" y="0.5" width="119.66407" height="40" rx="8"/><circle class="cls-2" cx="19.28003" cy="20.72526" r="11.22761"/><path class="cls-3" d="M468.68767,506.269l-9.22076,6.09957a11.23157,11.23157,0,0,0,9.373,10.5929l6.49324-9.10327-1.09645-3.77177-1.4473,1.62274-.35087-.48244,1.31574-1.49117-1.79817-2.2806.70172-1.18417-1.27188,1.00874Z" transform="translate(-451.40423 -491.15934)"/><path class="cls-4" d="M474.74142,514.21139h-.01956a.68024.68024,0,0,1-.67967-.68081V510.597a.68021.68021,0,0,1,.67967-.68081h.01956a.68024.68024,0,0,1,.67971.68081v2.9336A.68027.68027,0,0,1,474.74142,514.21139Zm-1.587,1.08359h-.64072l.03794,1.51275a.68949.68949,0,1,1-1.379,0l-.02311-1.51275H470.232l.00894,1.51275a.68949.68949,0,1,1-1.379,0l.00587-1.51275h-.57138a.62781.62781,0,0,1-.62712-.62848v-4.60073h6.11225v4.60073A.62782.62782,0,0,1,473.15446,515.295Zm-3.89352-7.91813s-.53857-.93532-.58533-1.00891.08066-.13008.11184-.07469.6059,1.01518.6059,1.01518a3.05737,3.05737,0,0,1,2.61086-.02531s.59124-.94487.622-.98987.13868.0243.11179.07469c-.02684.05035-.59291.98478-.59291.98478a3.06425,3.06425,0,0,1,1.62265,2.42l-6.08672.0232A3.06385,3.06385,0,0,1,469.26094,507.37685Zm2.825,1.34367a.2801.2801,0,1,0-.27915-.28008A.27958.27958,0,0,0,472.08591,508.72052Zm-2.79545,0a.2801.2801,0,1,0-.27968-.28008A.27988.27988,0,0,0,469.29046,508.72052Zm-2.59955,5.49087h-.01956a.68023.68023,0,0,1-.67966-.68081V510.597a.6802.6802,0,0,1,.67966-.68081h.01956a.68021.68021,0,0,1,.67967.68081v2.9336A.68024.68024,0,0,1,466.69091,514.21139Z" transform="translate(-451.40423 -491.15934)"/><path d="M486.91692,506.52644v-5.72656h2.14844a2.66155,2.66155,0,0,1,1.05274.17383,1.3552,1.3552,0,0,1,.62109.53516,1.40849,1.40849,0,0,1,.22461.75586,1.2993,1.2993,0,0,1-.19922.6914,1.42234,1.42234,0,0,1-.60156.52344,1.4966,1.4966,0,0,1,.79883.51953,1.39179,1.39179,0,0,1,.27929.86719,1.6732,1.6732,0,0,1-.16992.748,1.45,1.45,0,0,1-.41992.53321,1.75262,1.75262,0,0,1-.62695.2832,3.80487,3.80487,0,0,1-.92383.0957Zm.75782-3.32031H488.913a2.75683,2.75683,0,0,0,.72265-.0664.80175.80175,0,0,0,.43555-.28516.82108.82108,0,0,0,.14649-.5.91989.91989,0,0,0-.13672-.502.69123.69123,0,0,0-.39063-.29688,3.26936,3.26936,0,0,0-.87109-.08008h-1.14453Zm0,2.64453h1.42578a3.30492,3.30492,0,0,0,.51562-.02734,1.23987,1.23987,0,0,0,.4375-.15625.83088.83088,0,0,0,.28907-.31836.99464.99464,0,0,0,.11328-.48242.95225.95225,0,0,0-.16407-.55664.866.866,0,0,0-.45507-.332,2.8145,2.8145,0,0,0-.83789-.09571h-1.32422Z" transform="translate(-451.40423 -491.15934)"/><path d="M494.9013,506.01473a2.62543,2.62543,0,0,1-.75195.46875,2.1695,2.1695,0,0,1-.77539.13671,1.50822,1.50822,0,0,1-1.05079-.334,1.10318,1.10318,0,0,1-.36718-.85352,1.15642,1.15642,0,0,1,.502-.96093,1.71388,1.71388,0,0,1,.50586-.23047,4.96285,4.96285,0,0,1,.625-.10547,6.43387,6.43387,0,0,0,1.25391-.24219c.00244-.09619.0039-.15771.0039-.18359a.776.776,0,0,0-.19922-.60547,1.17783,1.17783,0,0,0-.80078-.23828,1.24358,1.24358,0,0,0-.73242.17383,1.061,1.061,0,0,0-.34961.61523l-.6875-.09375a1.70563,1.70563,0,0,1,.30859-.71289,1.34973,1.34973,0,0,1,.6211-.418,2.77014,2.77014,0,0,1,.9414-.14648,2.4878,2.4878,0,0,1,.86329.125,1.13751,1.13751,0,0,1,.48828.31445,1.106,1.106,0,0,1,.21875.47852,3.95847,3.95847,0,0,1,.03515.64843v.9375a9.98626,9.98626,0,0,0,.04492,1.24024,1.562,1.562,0,0,0,.17774.498h-.73438A1.49924,1.49924,0,0,1,494.9013,506.01473Zm-.05859-1.57032a5.16339,5.16339,0,0,1-1.14844.26563,2.63721,2.63721,0,0,0-.61328.14062.61344.61344,0,0,0-.27735.22852.62151.62151,0,0,0,.11524.80273.91626.91626,0,0,0,.623.1875,1.44792,1.44792,0,0,0,.72266-.17773,1.09693,1.09693,0,0,0,.46484-.48633,1.69467,1.69467,0,0,0,.11329-.70312Z" transform="translate(-451.40423 -491.15934)"/><path d="M496.64739,501.60848v-.8086h.70313v.8086Zm0,4.918V502.378h.70313v4.14843Z" transform="translate(-451.40423 -491.15934)"/><path d="M497.95208,506.52644l1.51563-2.15625-1.40235-1.99218h.87891l.63672.97265q.17945.27759.28906.46485.17213-.25782.31641-.457l.69921-.98047h.83985l-1.4336,1.95312,1.543,2.19531h-.86328l-.85156-1.28906-.22656-.34765-1.08985,1.63671Z" transform="translate(-451.40423 -491.15934)"/><path d="M505.12786,506.01473a2.62543,2.62543,0,0,1-.752.46875,2.16942,2.16942,0,0,1-.77539.13671,1.50819,1.50819,0,0,1-1.05078-.334,1.10316,1.10316,0,0,1-.36719-.85352,1.15642,1.15642,0,0,1,.502-.96093,1.71388,1.71388,0,0,1,.50586-.23047,4.96319,4.96319,0,0,1,.625-.10547,6.43387,6.43387,0,0,0,1.25391-.24219c.00244-.09619.0039-.15771.0039-.18359a.77605.77605,0,0,0-.19921-.60547,1.17788,1.17788,0,0,0-.80079-.23828,1.24361,1.24361,0,0,0-.73242.17383,1.06109,1.06109,0,0,0-.34961.61523l-.6875-.09375a1.70551,1.70551,0,0,1,.3086-.71289,1.34965,1.34965,0,0,1,.62109-.418,2.7702,2.7702,0,0,1,.94141-.14648,2.48774,2.48774,0,0,1,.86328.125,1.13745,1.13745,0,0,1,.48828.31445,1.10588,1.10588,0,0,1,.21875.47852,3.957,3.957,0,0,1,.03516.64843v.9375a9.98415,9.98415,0,0,0,.04492,1.24024,1.56171,1.56171,0,0,0,.17773.498h-.73437A1.499,1.499,0,0,1,505.12786,506.01473Zm-.05859-1.57032a5.16325,5.16325,0,0,1-1.14844.26563,2.63721,2.63721,0,0,0-.61328.14062.61341.61341,0,0,0-.27734.22852.62149.62149,0,0,0,.11523.80273.91627.91627,0,0,0,.623.1875,1.44788,1.44788,0,0,0,.72265-.17773,1.097,1.097,0,0,0,.46485-.48633,1.69486,1.69486,0,0,0,.11328-.70312Z" transform="translate(-451.40423 -491.15934)"/><path d="M506.86224,506.52644V502.378h.63281v.6289a1.71665,1.71665,0,0,1,.44726-.582.78074.78074,0,0,1,.45118-.14062,1.37291,1.37291,0,0,1,.72265.22656l-.24218.65234a1.00607,1.00607,0,0,0-.51563-.15234.67064.67064,0,0,0-.41406.13867.75052.75052,0,0,0-.26172.38477,2.73858,2.73858,0,0,0-.11719.82031v2.17187Z" transform="translate(-451.40423 -491.15934)"/><path d="M514.4638,506.01473a2.61246,2.61246,0,0,1-.75195.46875,2.16565,2.16565,0,0,1-.77539.13671,1.50822,1.50822,0,0,1-1.05079-.334,1.10318,1.10318,0,0,1-.36718-.85352,1.15642,1.15642,0,0,1,.502-.96093,1.71388,1.71388,0,0,1,.50586-.23047,4.96285,4.96285,0,0,1,.625-.10547,6.41818,6.41818,0,0,0,1.25391-.24219c.00292-.09619.0039-.15771.0039-.18359a.776.776,0,0,0-.19922-.60547,1.177,1.177,0,0,0-.80078-.23828,1.2446,1.2446,0,0,0-.73242.17383,1.061,1.061,0,0,0-.34961.61523l-.6875-.09375a1.70563,1.70563,0,0,1,.30859-.71289,1.34973,1.34973,0,0,1,.6211-.418,2.77213,2.77213,0,0,1,.9414-.14648,2.484,2.484,0,0,1,.86329.125,1.13152,1.13152,0,0,1,.48828.31445,1.09484,1.09484,0,0,1,.21875.47852,3.95847,3.95847,0,0,1,.03515.64843v.9375a10.09077,10.09077,0,0,0,.04492,1.24024,1.586,1.586,0,0,0,.17774.498h-.73438A1.52144,1.52144,0,0,1,514.4638,506.01473Zm-.05859-1.57032a5.14956,5.14956,0,0,1-1.14844.26563,2.63721,2.63721,0,0,0-.61328.14062.61344.61344,0,0,0-.27735.22852.62151.62151,0,0,0,.11524.80273.91626.91626,0,0,0,.623.1875,1.44662,1.44662,0,0,0,.72266-.17773,1.0943,1.0943,0,0,0,.46484-.48633,1.68664,1.68664,0,0,0,.11329-.70312Z" transform="translate(-451.40423 -491.15934)"/><path d="M516.206,508.11629V502.378h.64062v.53906a1.5791,1.5791,0,0,1,.51172-.47461,1.40515,1.40515,0,0,1,.69141-.1582,1.63908,1.63908,0,0,1,.9375.27343,1.67743,1.67743,0,0,1,.61328.77149,2.82232,2.82232,0,0,1,.207,1.0918,2.77353,2.77353,0,0,1-.22852,1.14648,1.72537,1.72537,0,0,1-.66406.78125,1.70283,1.70283,0,0,1-.916.27148,1.31945,1.31945,0,0,1-.63086-.14843,1.44091,1.44091,0,0,1-.459-.375v2.01953Zm.63672-3.64063a1.80144,1.80144,0,0,0,.32421,1.1836.99562.99562,0,0,0,.78516.38281,1.0169,1.0169,0,0,0,.80273-.39649,1.88075,1.88075,0,0,0,.334-1.22851,1.83091,1.83091,0,0,0-.32617-1.1875.98243.98243,0,0,0-.7793-.39453,1.01251,1.01251,0,0,0-.79492.41992A1.87876,1.87876,0,0,0,516.84271,504.47566Z" transform="translate(-451.40423 -491.15934)"/><path d="M520.65521,508.11629V502.378h.64062v.53906a1.5791,1.5791,0,0,1,.51172-.47461,1.40777,1.40777,0,0,1,.69141-.1582,1.63908,1.63908,0,0,1,.9375.27343,1.67743,1.67743,0,0,1,.61328.77149,2.82232,2.82232,0,0,1,.207,1.0918,2.77353,2.77353,0,0,1-.22852,1.14648,1.72537,1.72537,0,0,1-.66406.78125,1.70283,1.70283,0,0,1-.916.27148,1.32226,1.32226,0,0,1-.63086-.14843,1.441,1.441,0,0,1-.459-.375v2.01953Zm.63671-3.64063a1.807,1.807,0,0,0,.32422,1.1836.99284.99284,0,0,0,.78516.38281,1.0169,1.0169,0,0,0,.80273-.39649,1.88075,1.88075,0,0,0,.334-1.22851,1.83091,1.83091,0,0,0-.32617-1.1875.98243.98243,0,0,0-.7793-.39453,1.0125,1.0125,0,0,0-.79492.41992A1.87876,1.87876,0,0,0,521.29192,504.47566Z" transform="translate(-451.40423 -491.15934)"/><path d="M486.332,522.7701l4.67334-12.16895h1.73487l4.98046,12.16895h-1.83447l-1.41943-3.68555h-5.08838l-1.33643,3.68555Zm3.51123-4.99707h4.12549l-1.27-3.37012q-.5808-1.5359-.86328-2.52344a15.48652,15.48652,0,0,1-.65576,2.32422Z" transform="translate(-451.40423 -491.15934)"/><path d="M498.81634,522.7701v-8.81543h1.34472v1.25293a3.1697,3.1697,0,0,1,2.80567-1.45215,3.69131,3.69131,0,0,1,1.46533.28613,2.30956,2.30956,0,0,1,1,.751,2.88564,2.88564,0,0,1,.46484,1.10449,8.56571,8.56571,0,0,1,.083,1.45215v5.4209h-1.49414v-5.36231a4.01788,4.01788,0,0,0-.17431-1.36523,1.435,1.435,0,0,0-.61866-.72266,1.96711,1.96711,0,0,0-1.0415-.26953,2.425,2.425,0,0,0-1.64795.60547,2.9917,2.9917,0,0,0-.69287,2.2998v4.81446Z" transform="translate(-451.40423 -491.15934)"/><path d="M513.99017,522.7701v-1.11231a2.74236,2.74236,0,0,1-2.46534,1.31153,3.46049,3.46049,0,0,1-1.938-.58106,3.82561,3.82561,0,0,1-1.37012-1.623,5.61646,5.61646,0,0,1-.48535-2.39453,6.26065,6.26065,0,0,1,.43994-2.39453,3.473,3.473,0,0,1,1.31982-1.64844,3.52749,3.52749,0,0,1,1.96729-.57226,2.93812,2.93812,0,0,1,2.43213,1.21191v-4.36621h1.48632V522.7701Zm-4.72315-4.39942a3.82543,3.82543,0,0,0,.71387,2.53125,2.15133,2.15133,0,0,0,1.68506.83887A2.11441,2.11441,0,0,0,513.33,520.94a3.69274,3.69274,0,0,0,.68555-2.44531,4.14614,4.14614,0,0,0-.69727-2.65625,2.14619,2.14619,0,0,0-1.71875-.84668,2.07043,2.07043,0,0,0-1.66406.81347A4.0151,4.0151,0,0,0,509.267,518.37068Z" transform="translate(-451.40423 -491.15934)"/><path d="M517.70892,522.7701v-8.81543h1.3457v1.33593a3.6371,3.6371,0,0,1,.95019-1.23632,1.65793,1.65793,0,0,1,.958-.29883,2.91305,2.91305,0,0,1,1.53614.48144l-.51465,1.38575a2.13712,2.13712,0,0,0-1.09571-.32325,1.41815,1.41815,0,0,0-.87988.29493,1.59414,1.59414,0,0,0-.55566.81738,5.81933,5.81933,0,0,0-.25,1.74316v4.61524Z" transform="translate(-451.40423 -491.15934)"/><path d="M522.831,518.36189a4.54377,4.54377,0,0,1,1.36132-3.62695,4.1004,4.1004,0,0,1,2.77247-.97949,3.95282,3.95282,0,0,1,2.97168,1.1914,4.52922,4.52922,0,0,1,1.15429,3.291,5.83915,5.83915,0,0,1-.51074,2.67676,3.61348,3.61348,0,0,1-1.48633,1.51465,4.318,4.318,0,0,1-2.1289.54,3.95921,3.95921,0,0,1-2.99219-1.1875A4.74057,4.74057,0,0,1,522.831,518.36189Zm1.53515,0a3.757,3.757,0,0,0,.73926,2.53614,2.45908,2.45908,0,0,0,3.71-.00391,3.84048,3.84048,0,0,0,.73926-2.582,3.6427,3.6427,0,0,0-.74316-2.47754,2.46229,2.46229,0,0,0-3.70606-.00391A3.73766,3.73766,0,0,0,524.36614,518.36189Z" transform="translate(-451.40423 -491.15934)"/><path d="M532.84954,512.31941v-1.71826h1.49414v1.71826Zm0,10.45069v-8.81543h1.49414v8.81543Z" transform="translate(-451.40423 -491.15934)"/><path d="M542.33782,522.7701v-1.11231a2.74208,2.74208,0,0,1-2.46484,1.31153,3.46094,3.46094,0,0,1-1.93848-.58106,3.82568,3.82568,0,0,1-1.37012-1.623,5.61646,5.61646,0,0,1-.48535-2.39453,6.25161,6.25161,0,0,1,.44043-2.39453,3.46632,3.46632,0,0,1,1.31934-1.64844,3.52905,3.52905,0,0,1,1.96777-.57226,2.938,2.938,0,0,1,2.43164,1.21191v-4.36621h1.48633V522.7701Zm-4.72265-4.39942a3.82823,3.82823,0,0,0,.71289,2.53125,2.15293,2.15293,0,0,0,1.68554.83887,2.11374,2.11374,0,0,0,1.66407-.80078,3.69274,3.69274,0,0,0,.68554-2.44531,4.14615,4.14615,0,0,0-.69726-2.65625,2.14554,2.14554,0,0,0-1.71875-.84668,2.07045,2.07045,0,0,0-1.66407.81347A4.01829,4.01829,0,0,0,537.61517,518.37068Z" transform="translate(-451.40423 -491.15934)"/></svg>