<?xml version="1.0" ?><svg height="512" preserveAspectRatio="xMidYMid" viewBox="0 0 512 512" width="512" xmlns="http://www.w3.org/2000/svg" xmlns:xlink="http://www.w3.org/1999/xlink"><defs><style>
      .cls-1 {
        fill: #3498db;
      }

      .cls-2 {
        fill: #000;
        opacity: 0.3;
      }

      .cls-2, .cls-3 {
        fill-rule: evenodd;
      }

      .cls-3 {
        fill: #fff;
      }
    </style></defs><g><circle class="cls-1" cx="256" cy="256" r="256"/><path class="cls-2" d="M210.476,127.959 L0.234,267.035 C5.412,389.126 96.102,489.088 213.948,508.563 L362.000,301.000 L337.000,215.000 L304.000,252.000 L296.000,241.000 L326.000,207.000 L285.000,155.000 L301.000,128.000 L272.000,151.000 L210.476,127.959 Z"/><path class="cls-3" d="M348.507,309.053 L348.061,309.053 C339.502,309.053 332.564,302.103 332.564,293.530 L332.564,226.641 C332.564,218.067 339.502,211.118 348.061,211.118 L348.507,211.118 C357.066,211.118 364.005,218.067 364.005,226.641 L364.005,293.530 C364.005,302.103 357.066,309.053 348.507,309.053 ZM312.323,333.760 L297.714,333.760 L298.579,368.252 C298.579,376.954 291.541,384.008 282.858,384.008 C274.176,384.008 267.137,376.954 267.137,368.252 L266.610,333.760 L245.688,333.760 L245.892,368.252 C245.892,376.954 238.854,384.008 230.171,384.008 C221.489,384.008 214.450,376.954 214.450,368.252 L214.584,333.760 L201.556,333.760 C193.659,333.760 187.257,327.344 187.257,319.430 L187.257,214.529 L326.622,214.529 L326.622,319.430 C326.622,327.344 320.220,333.760 312.323,333.760 ZM223.547,153.219 C223.547,153.219 211.267,131.893 210.201,130.215 C209.135,128.537 212.040,127.249 212.751,128.512 C213.462,129.774 226.566,151.659 226.566,151.659 C235.746,147.196 246.051,144.693 256.940,144.693 C267.349,144.693 277.226,146.981 286.096,151.082 C286.096,151.082 299.577,129.538 300.279,128.512 C300.981,127.485 303.441,129.066 302.828,130.215 C302.216,131.363 289.309,152.669 289.309,152.669 C309.631,163.372 324.033,183.838 326.307,207.846 L187.524,208.375 C189.600,184.544 203.618,164.144 223.547,153.219 ZM287.959,183.856 C291.474,183.856 294.323,180.997 294.323,177.470 C294.323,173.942 291.474,171.083 287.959,171.083 C284.444,171.083 281.594,173.942 281.594,177.470 C281.594,180.997 284.444,183.856 287.959,183.856 ZM224.220,183.856 C227.743,183.856 230.598,180.997 230.598,177.470 C230.598,173.942 227.743,171.083 224.220,171.083 C220.698,171.083 217.843,173.942 217.843,177.470 C217.843,180.997 220.698,183.856 224.220,183.856 ZM164.948,309.053 L164.502,309.053 C155.943,309.053 149.005,302.103 149.005,293.530 L149.005,226.641 C149.005,218.067 155.943,211.118 164.502,211.118 L164.948,211.118 C173.507,211.118 180.445,218.067 180.445,226.641 L180.445,293.530 C180.445,302.103 173.507,309.053 164.948,309.053 Z"/></g></svg>