<svg id="Camada_1" data-name="Camada 1" xmlns="http://www.w3.org/2000/svg" xmlns:xlink="http://www.w3.org/1999/xlink" viewBox="0 0 714.93789 133.78082"><defs><style>.cls-1{fill:#fff;}.cls-2{fill:url(#Gradiente_sem_nome);}</style><linearGradient id="Gradiente_sem_nome" x1="84.86889" y1="326.9078" x2="248.41258" y2="490.45151" gradientTransform="translate(-49.08886 -322.09515)" gradientUnits="userSpaceOnUse"><stop offset="0" stop-color="#00c7ff"/><stop offset="1" stop-color="#0045ff"/></linearGradient></defs><path class="cls-1" d="M385.0901,90.18612V51.7267c0-22.12751,7.63922-35.69349,32.0057-35.69349,23.57584,0,30.68814,12.64416,30.68814,30.8202v5.7918a3.42786,3.42786,0,0,1-3.42785,3.42786H428.16291a3.42787,3.42787,0,0,1-3.42786-3.42786h0V45.40462c0-6.19043-.13208-12.7758-7.63922-12.7758-7.50763,0-8.16617,6.717-8.16617,13.17068V95.98126c0,7.24434,1.18555,13.03946,8.16617,13.03946,7.37555,0,7.63922-6.58574,7.63922-13.03946V88.21413a3.42787,3.42787,0,0,1,3.42786-3.42786h16.19318a3.42786,3.42786,0,0,1,3.42785,3.42786v5.79136c0,18.176-6.849,31.742-30.68814,31.742C392.72935,125.74756,385.0901,111.78622,385.0901,90.18612Z" transform="translate(-0.00002 0)"/><path class="cls-1" d="M464.01713,17.482h41.29425a3.324,3.324,0,0,1,3.324,3.324v9.42059a3.324,3.324,0,0,1-3.324,3.324H487.593a3.324,3.324,0,0,0-3.324,3.324v.00005h0v19.8258a3.324,3.324,0,0,0,3.32394,3.32406h11.92334a3.324,3.324,0,0,1,3.324,3.324v9.68386a3.324,3.324,0,0,1-3.324,3.324H487.593a3.324,3.324,0,0,0-3.324,3.324v25.22565a3.324,3.324,0,0,0,3.324,3.324h17.98163a3.324,3.324,0,0,1,3.324,3.324v9.28894a3.324,3.324,0,0,1-3.324,3.324H464.01713a3.324,3.324,0,0,1-3.324-3.324V20.806a3.324,3.324,0,0,1,3.324-3.324Z" transform="translate(-0.00002 0)"/><path class="cls-1" d="M651.05851,21.44372a3.96178,3.96178,0,0,1,3.96173-3.96176h31.863c19.09784,0,28.05468,11.19539,28.05468,30.95184,0,24.62973-13.56683,30.4253-30.82019,30.4253h-5.52154a3.96176,3.96176,0,0,0-3.96173,3.96175v37.38449a3.96179,3.96179,0,0,1-3.96173,3.96176H655.0203a3.96179,3.96179,0,0,1-3.96173-3.96176Zm31.47876,40.95137c8.69269,0,10.27313-4.60961,10.27313-14.35622,0-8.03455-.92181-13.96132-10.40515-13.96132h-3.80914a3.96177,3.96177,0,0,0-3.96173,3.96176v20.394a3.96177,3.96177,0,0,0,3.96173,3.96176Z" transform="translate(-0.00002 0)"/><path class="cls-1" d="M347.0247,51.81182v65.32982a7.02544,7.02544,0,0,0,7.02539,7.02551h9.52536a7.02552,7.02552,0,0,0,7.02554-7.0255v0h0V51.81182Z" transform="translate(-0.00002 0)"/><path class="cls-1" d="M363.42716,17.48191H314.31355V17.482H311.7963a.33474.33474,0,0,0-.33471.33474h0V59.51059a1.90471,1.90471,0,0,1-3.65723.74594L290.091,18.64076a1.90473,1.90473,0,0,0-1.75253-1.15875H274.90684a1.90467,1.90467,0,0,0-1.90473,1.90459v102.876a1.90464,1.90464,0,0,0,1.90464,1.90463h16.34246a1.90471,1.90471,0,0,0,1.90473-1.90463V78.8498a1.90465,1.90465,0,0,1,3.676-.70011l17.71167,44.81285a1.90467,1.90467,0,0,0,1.77137,1.20456h12.73709a1.90464,1.90464,0,0,0,1.90466-1.90463V41.0582h32.47244a7.02547,7.02547,0,0,0,7.02555-7.0254h0V24.50744a7.02549,7.02549,0,0,0-7.02549-7.02553h-.00006Z" transform="translate(-0.00002 0)"/><path class="cls-1" d="M576.00327,110.10177l-1.85309,9.81011a3.589,3.589,0,0,0,3.52668,4.25522h14.82751a3.589,3.589,0,0,0,3.55109-3.06889l1.54626-10.55767a1.3275,1.3275,0,0,0-1.31341-1.51982H577.30759A1.32752,1.32752,0,0,0,576.00327,110.10177Z" transform="translate(-0.00002 0)"/><path class="cls-1" d="M639.46372,119.92038,620.91337,20.4132a3.589,3.589,0,0,0-3.5282-2.93121H596.47276a3.58891,3.58891,0,0,0-3.52662,2.92284L577.7985,100.59748a1.32759,1.32759,0,0,0,1.30438,1.57382h18.57746a1.32746,1.32746,0,0,0,1.31341-1.1351l4.51953-30.85887a3.589,3.589,0,0,1,7.10224,0l7.45831,50.921a3.589,3.589,0,0,0,3.55109,3.06889h14.3106a3.58905,3.58905,0,0,0,3.5282-4.24682Z" transform="translate(-0.00002 0)"/><path class="cls-1" d="M595.85874,109.02067h-45.733c-6.98065,0-8.1662-5.79513-8.1662-13.03948V45.79944c0-6.45372.65863-13.17067,8.1662-13.17067,7.5072,0,7.63922,6.58534,7.63922,12.77578v7.24056a3.42788,3.42788,0,0,0,3.42786,3.42789H577.386a3.42789,3.42789,0,0,0,3.42786-3.42786h0V46.85333c0-18.176-7.11236-30.8202-30.68811-30.8202-24.36645,0-32.00568,13.566-32.00568,35.69349V90.18607c0,21.6001,7.63923,35.56144,32.00568,35.56144h41.34729a4.53365,4.53365,0,0,0,4.486-3.87838l1.59082-10.89229a1.709,1.709,0,0,0-1.69116-1.95617Z" transform="translate(-0.00002 0)"/><path class="cls-2" d="M235.18549,53.44587c-1.48391-25.39768-32.08056-45.82685-70.233-46.9551V6.43926H132.00973V5.39142A5.39142,5.39142,0,0,0,126.61835,0H108.62944A5.39144,5.39144,0,0,0,103.238,5.39142V6.43926H70.29528v.05151C32.14283,7.619,1.54616,28.04821.06228,53.44587H0v76.36968a7.93811,7.93811,0,0,0,1.06047,3.96527c18.19026-14.03745,63.763-23.99137,117.11287-23.99137,52.59325,0,97.62609,9.674,116.32027,23.397a7.93971,7.93971,0,0,0,.75413-3.37084V53.44587Z" transform="translate(-0.00002 0)"/><circle class="cls-1" cx="75.4051" cy="71.92604" r="28.12295"/><circle class="cls-1" cx="159.84262" cy="71.92604" r="28.12294"/></svg>