<svg id="Camada_1" data-name="Camada 1" xmlns="http://www.w3.org/2000/svg" xmlns:xlink="http://www.w3.org/1999/xlink" viewBox="0 0 850.76671 149.78079"><defs><style>.cls-1{fill:#fff;}.cls-2{fill:url(#Gradiente_sem_nome_195);}</style><linearGradient id="Gradiente_sem_nome_195" x1="75.08047" y1="420.45976" x2="258.18375" y2="603.56304" gradientUnits="userSpaceOnUse"><stop offset="0" stop-color="#00c7ff"/><stop offset="1" stop-color="#0045ff"/></linearGradient></defs><path class="cls-1" d="M495.09426,516.81708v-45.5539c0-26.20928,9.04841-42.27775,37.9097-42.27775,27.9248,0,36.34907,14.97659,36.34907,36.50549v6.86019a4.06018,4.06018,0,0,1-4.06018,4.06017h-19.1803a4.06018,4.06018,0,0,1-4.06018-4.06017v-8.57622c0-7.33238-.15642-15.1325-9.04841-15.1325-8.89251,0-9.67257,7.956-9.67257,15.60023v59.4386c0,8.58069,1.40421,15.44483,9.67257,15.44483,8.73608,0,9.04841-7.80062,9.04841-15.44483v-9.19986a4.06019,4.06019,0,0,1,4.06018-4.06018h19.1803a4.06019,4.06019,0,0,1,4.06018,4.06018V521.341c0,21.5289-8.11245,37.59737-36.34907,37.59737C504.14267,558.93841,495.09426,542.4017,495.09426,516.81708Z" transform="translate(-35.02121 -415.07152)"/><path class="cls-1" d="M588.58068,430.70147h48.91165a3.93722,3.93722,0,0,1,3.93722,3.93722v11.15837a3.93722,3.93722,0,0,1-3.93722,3.93722H616.50549a3.93721,3.93721,0,0,0-3.93722,3.93721v23.483a3.93722,3.93722,0,0,0,3.93722,3.93722h14.1227a3.93722,3.93722,0,0,1,3.93722,3.93722v11.47019a3.93721,3.93721,0,0,1-3.93722,3.93721h-14.1227a3.93722,3.93722,0,0,0-3.93722,3.93722v29.87885a3.93722,3.93722,0,0,0,3.93722,3.93722h21.29866a3.93722,3.93722,0,0,1,3.93722,3.93722v11.00245a3.93722,3.93722,0,0,1-3.93722,3.93722H588.58068a3.93722,3.93722,0,0,1-3.93722-3.93722V434.63869A3.93722,3.93722,0,0,1,588.58068,430.70147Z" transform="translate(-35.02121 -415.07152)"/><path class="cls-1" d="M810.12494,435.394a4.69257,4.69257,0,0,1,4.69257-4.69257h37.74057c22.62079,0,33.22984,13.26055,33.22984,36.6614,0,29.1731-16.06948,36.03775-36.50549,36.03775h-6.54012a4.69258,4.69258,0,0,0-4.69257,4.69258v44.28069a4.69258,4.69258,0,0,1-4.69257,4.69257H814.81751a4.69257,4.69257,0,0,1-4.69257-4.69257Zm37.28555,48.50554c10.29621,0,12.16815-5.45993,12.16815-17.00444,0-9.51666-1.09188-16.53671-12.32457-16.53671h-4.51176a4.69257,4.69257,0,0,0-4.69257,4.69257v24.156a4.69258,4.69258,0,0,0,4.69257,4.69258Z" transform="translate(-35.02121 -415.07152)"/><path class="cls-1" d="M450.00708,471.364v77.381a8.32143,8.32143,0,0,0,8.3215,8.3215H469.6109a8.32148,8.32148,0,0,0,8.32149-8.3215V471.364Z" transform="translate(-35.02121 -415.07152)"/><path class="cls-1" d="M469.43524,430.70139H411.26182v.00007H408.2802a.39648.39648,0,0,0-.39648.39647v49.385a2.25606,2.25606,0,0,1-4.33189.88356L382.571,432.074a2.25607,2.25607,0,0,0-2.07581-1.37251H364.58589a2.256,2.256,0,0,0-2.25608,2.256v121.853a2.256,2.256,0,0,0,2.25608,2.256h19.357a2.25608,2.25608,0,0,0,2.25608-2.256V503.3896a2.256,2.256,0,0,1,4.35413-.82924l20.97888,53.07929a2.256,2.256,0,0,0,2.09812,1.42678H428.7167a2.256,2.256,0,0,0,2.256-2.256V458.6267h38.46253a8.32143,8.32143,0,0,0,8.3215-8.3215V439.02288A8.32148,8.32148,0,0,0,469.43524,430.70139Z" transform="translate(-35.02121 -415.07152)"/><path class="cls-1" d="M721.22449,540.40652l-2.19488,11.61977a4.2511,4.2511,0,0,0,4.17722,5.04014h17.56266a4.25107,4.25107,0,0,0,4.2062-3.635l1.83147-12.50518a1.57231,1.57231,0,0,0-1.55572-1.80016H722.76949A1.57232,1.57232,0,0,0,721.22449,540.40652Z" transform="translate(-35.02121 -415.07152)"/><path class="cls-1" d="M796.3913,552.0363,774.419,434.17339a4.251,4.251,0,0,0-4.179-3.47193H745.46989a4.251,4.251,0,0,0-4.17714,3.462L723.35088,529.149a1.57232,1.57232,0,0,0,1.545,1.86415h22.00437a1.57232,1.57232,0,0,0,1.55572-1.34447l5.3532-36.55129a4.251,4.251,0,0,1,8.41235,0l8.8341,60.31416a4.251,4.251,0,0,0,4.20615,3.635h16.95047A4.25106,4.25106,0,0,0,796.3913,552.0363Z" transform="translate(-35.02121 -415.07152)"/><path class="cls-1" d="M744.7427,539.126H690.57348c-8.26834,0-9.6726-6.86415-9.6726-15.44482v-59.4386c0-7.64422.78008-15.60023,9.6726-15.60023,8.892,0,9.04841,7.80012,9.04841,15.13249v8.5762a4.06018,4.06018,0,0,0,4.06019,4.06018h19.18028a4.06018,4.06018,0,0,0,4.06018-4.06018v-6.86016c0-21.5289-8.4243-36.5055-36.34906-36.5055-28.86128,0-37.90969,16.06845-37.90969,42.27773v45.55392c0,25.58461,9.04841,42.12135,37.90969,42.12135H739.548a5.36992,5.36992,0,0,0,5.31351-4.59382L746.7458,541.443A2.02439,2.02439,0,0,0,744.7427,539.126Z" transform="translate(-35.02121 -415.07152)"/><path class="cls-2" d="M298.33455,474.90946c-1.66137-28.4352-35.91735-51.30768-78.63279-52.57087v-.05768H182.8191v-1.17316a6.03622,6.03622,0,0,0-6.03623-6.03623h-20.1403a6.03624,6.03624,0,0,0-6.03623,6.03623v1.17316H113.72371v.05768c-42.71544,1.26319-76.97142,24.13567-78.63279,52.57087h-.06971v85.50337a8.88754,8.88754,0,0,0,1.1873,4.43949c20.36579-15.71632,71.389-26.8607,131.11942-26.8607,58.88333,0,109.302,10.831,130.232,26.19522a8.88927,8.88927,0,0,0,.84432-3.774V474.90946Z" transform="translate(-35.02121 -415.07152)"/><circle class="cls-1" cx="84.42346" cy="80.5283" r="31.48641"/><circle class="cls-1" cx="178.95959" cy="80.5283" r="31.48641"/></svg>