<svg id="Camada_1" data-name="Camada 1" xmlns="http://www.w3.org/2000/svg" viewBox="0 0 479.5 101"><defs><style>.cls-1{fill:#fff;}</style></defs><path class="cls-1" d="M165.67733,97.21385v-35.35C165.67733,41.50846,173.928,29,200.36218,29c25.553,0,33.32308,11.65385,33.32308,28.35769v5.36077a3.5182,3.5182,0,0,1-3.68477,3.18539H212.45782a3.41476,3.41476,0,0,1-3.68477-3.18539h0V56.03693c0-5.67154-.16021-11.73154-8.25068-11.73154-8.17056,0-8.89149,6.21538-8.89149,12.12v46.14923c0,6.68154,1.28166,11.96462,8.89149,11.96462,8.01036,0,8.25068-6.06,8.25068-11.96462V95.42693a3.51819,3.51819,0,0,1,3.68477-3.18538H229.9204a3.41477,3.41477,0,0,1,3.68477,3.18538h0v5.36077c0,16.70385-7.44964,29.2123-33.32309,29.2123C173.928,130,165.67733,117.10308,165.67733,97.21385Z" transform="translate(-44 -29)"/><path class="cls-1" d="M251.30805,30.32077H296.086a3.37632,3.37632,0,0,1,3.60467,3.03v8.70154c0,1.70923-1.60208,3.03-3.60467,3.03H276.8611a3.37631,3.37631,0,0,0-3.60466,3.03V66.37c0,1.70923,1.60207,3.03,3.60466,3.03h12.89668a3.37631,3.37631,0,0,1,3.60466,3.03v8.93462c0,1.70922-1.60207,3.03-3.60466,3.03H276.8611a3.37631,3.37631,0,0,0-3.60466,3.03v23.23c0,1.70923,1.60207,3.03,3.60466,3.03h19.54526a3.37633,3.37633,0,0,1,3.60467,3.03v8.54616c0,1.70922-1.60208,3.03-3.60467,3.03H251.30805a3.37632,3.37632,0,0,1-3.60466-3.03V33.42846A3.38127,3.38127,0,0,1,251.30805,30.32077Z" transform="translate(-44 -29)"/><path class="cls-1" d="M454.21041,33.97231c0-2.02,1.92248-3.65154,4.32559-3.65154h34.52464c20.74682,0,30.43936,10.33308,30.43936,28.51308,0,22.68615-14.73905,27.96923-33.4032,27.96923H484.089c-2.40311,0-4.32559,1.63154-4.32559,3.65153V124.8723c0,2.02-1.92248,3.65154-4.32559,3.65154h-16.982c-2.40311,0-4.32559-1.63154-4.32559-3.65154v-90.9Zm34.12413,37.68077c9.45221,0,11.13439-4.27308,11.13439-13.20769,0-7.38077-.96126-12.81923-11.29461-12.81923h-4.1654c-2.4031,0-4.32559,1.63153-4.32559,3.65153V68.07923c0,2.02,1.92249,3.65154,4.32559,3.65154Z" transform="translate(-44 -29)"/><path class="cls-1" d="M124.34389,61.94154v60.13385c0,3.57384,3.44445,6.44846,7.60983,6.44846h10.33336c4.24549,0,7.60984-2.87461,7.60984-6.44846h0V61.94154Z" transform="translate(-44 -29)"/><path class="cls-1" d="M142.207,30.32077H86.21458a.36333.36333,0,0,0-.40051.31077h0v38.38a2.00979,2.00979,0,0,1-2.0827,1.78692,2.08155,2.08155,0,0,1-1.92248-1.08769L62.584,31.40846a2.13715,2.13715,0,0,0-1.92249-1.08769H46.08269A1.9544,1.9544,0,0,0,44,32.10769h0v94.70693a2.00978,2.00978,0,0,0,2.08269,1.78692H63.78558a1.9544,1.9544,0,0,0,2.08269-1.78693V86.80308A2.00979,2.00979,0,0,1,67.951,85.01615a2.13714,2.13714,0,0,1,1.92249,1.0877l19.22486,41.25461a2.00054,2.00054,0,0,0,1.92248,1.08769h13.85793a1.9544,1.9544,0,0,0,2.08269-1.78692V51.99692H142.207c4.24549,0,7.60984-2.87461,7.60984-6.44846h0V36.76923c0-3.57385-3.44445-6.44846-7.60984-6.44846Z" transform="translate(-44 -29)"/><path class="cls-1" d="M372.74506,115.54923l-2.00259,9.01231c-.40052,1.78692.96125,3.49615,3.124,3.88461.2403,0,.48062.0777.72092.0777h16.10083a3.68658,3.68658,0,0,0,3.845-2.79692l1.68218-9.71154a1.25567,1.25567,0,0,0-1.20155-1.39846H374.18692A1.341,1.341,0,0,0,372.74506,115.54923Z" transform="translate(-44 -29)"/><path class="cls-1" d="M441.63414,124.63923,421.44805,33.04a3.77,3.77,0,0,0-3.845-2.71923H394.93376a3.90671,3.90671,0,0,0-3.845,2.71923l-16.42123,73.80769a1.1965,1.1965,0,0,0,1.12144,1.39846h20.42641a1.48614,1.48614,0,0,0,1.44186-1.01l4.88632-28.43538c.32041-1.78692,2.323-3.03,4.4057-2.79692a3.6432,3.6432,0,0,1,3.28425,2.79692l8.09047,46.84846a3.68659,3.68659,0,0,0,3.845,2.79692h15.54009a3.65836,3.65836,0,0,0,3.92507-3.34077Z" transform="translate(-44 -29)"/><path class="cls-1" d="M394.29294,114.53923H344.70883c-7.60983,0-8.8915-5.36077-8.8915-11.96462V56.42538c0-5.90461.72093-12.12,8.8915-12.12s8.25066,6.06,8.25066,11.73154v6.68154a3.5182,3.5182,0,0,0,3.68477,3.18539h17.54268a3.41476,3.41476,0,0,0,3.68477-3.18539h0V57.35769C377.95179,40.65385,370.26187,29,344.70881,29,318.27463,29,310.024,41.50846,310.024,61.86385V97.29153C310.024,117.18076,318.27463,130,344.70881,130h44.858a4.86128,4.86128,0,0,0,4.88633-3.57384l1.76228-10.02231c.16022-.85462-.56073-1.63154-1.60207-1.78693A.62094.62094,0,0,0,394.29294,114.53923Z" transform="translate(-44 -29)"/></svg>