<svg id="Camada_1" data-name="Camada 1" xmlns="http://www.w3.org/2000/svg" xmlns:xlink="http://www.w3.org/1999/xlink" viewBox="0 0 575.74475 575.74475"><defs><style>.cls-1{fill:#fff;}.cls-2{fill:url(#Gradiente_sem_nome_195);}</style><linearGradient id="Gradiente_sem_nome_195" x1="337.61172" y1="222.08044" x2="547.44704" y2="431.91576" gradientUnits="userSpaceOnUse"><stop offset="0" stop-color="#00c7ff"/><stop offset="1" stop-color="#0045ff"/></linearGradient></defs><path class="cls-1" d="M255.80752,0h64.12972A255.80751,255.80751,0,0,1,575.74475,255.80751v64.12972A255.80751,255.80751,0,0,1,319.93724,575.74475H255.80751A255.80751,255.80751,0,0,1,0,319.93724V255.80752A255.80752,255.80752,0,0,1,255.80752,0Z"/><path class="cls-2" d="M593.45964,284.47948c-1.90392-32.58658-41.16109-58.79831-90.11275-60.24592v-.0661H461.07958V222.823a6.91748,6.91748,0,0,0-6.91748-6.91748H431.08142a6.9175,6.9175,0,0,0-6.91748,6.91748v1.34444H381.89665v.0661c-48.95165,1.44761-88.20882,27.65934-90.11274,60.24592H291.704v97.98639a10.185,10.185,0,0,0,1.36064,5.08762c23.33908-18.01081,81.81139-30.78221,150.26212-30.78221,67.48,0,125.25943,12.41223,149.24515,30.01958a10.18718,10.18718,0,0,0,.96758-4.325V284.47948Z" transform="translate(-154.7494 -13.85714)"/><circle class="cls-1" cx="233.70344" cy="294.33338" r="36.08325"/><circle class="cls-1" cx="342.04131" cy="294.33338" r="36.08325"/></svg>