<svg id="Camada_1" data-name="Camada 1" xmlns="http://www.w3.org/2000/svg" xmlns:xlink="http://www.w3.org/1999/xlink" viewBox="0 0 929.15484 135.31668"><defs><style>.cls-1{fill:url(#Gradiente_sem_nome_3);}.cls-2{fill:#fff;}</style><linearGradient id="Gradiente_sem_nome_3" x1="437.72172" y1="152.44933" x2="603.14297" y2="-12.9719" gradientTransform="matrix(1, 0, 0, -1, -360.77271, 600)" gradientUnits="userSpaceOnUse"><stop offset="0" stop-color="#00c7ff"/><stop offset="1" stop-color="#0045ff"/></linearGradient></defs><path class="cls-1" d="M278.64377,496.74224c-1.50094-25.68926-32.44885-46.353-71.03933-47.4942v-.0521H174.2835v-1.05987a5.45331,5.45331,0,0,0-5.4533-5.45332H150.63481a5.45333,5.45333,0,0,0-5.45332,5.45332v1.05987H111.86054v.0521c-38.59047,1.14122-69.5384,21.80492-71.03932,47.4942h-.063v77.24645a8.029,8.029,0,0,0,1.07263,4.01074c18.39912-14.1986,64.49506-24.26679,118.45738-24.26679,53.197,0,98.74685,9.785,117.65571,23.66556a8.03075,8.03075,0,0,0,.76276-3.40956v-77.2464Z" transform="translate(-40.75824 -442.68275)"/><circle class="cls-2" cx="76.27079" cy="72.7518" r="28.44582"/><circle class="cls-2" cx="161.67769" cy="72.7518" r="28.44582"/><path class="cls-2" d="M368.419,474.2998l39.0332,59.0625V473.75293q0-5.80957,2.49512-8.71582a8.41993,8.41993,0,0,1,6.73339-2.90527,8.68239,8.68239,0,0,1,6.9043,2.90527q2.52832,2.90625,2.5293,8.71582v78.81836q0,13.19385-10.9375,13.19336a14.49748,14.49748,0,0,1-4.92188-.78613,12.47968,12.47968,0,0,1-4.10156-2.49512,24.23686,24.23686,0,0,1-3.55469-3.999q-1.64062-2.28956-3.28125-4.68262l-38.07617-58.37891v58.7207q0,5.7422-2.666,8.68165a8.81684,8.81684,0,0,1-6.83594,2.93945,8.71353,8.71353,0,0,1-6.9043-2.97363q-2.59863-2.97365-2.59766-8.64747V476.8291a21.88251,21.88251,0,0,1,1.09375-7.72461,11.02012,11.02012,0,0,1,4.30665-5.02441,11.72088,11.72088,0,0,1,6.49414-1.94824,10.64135,10.64135,0,0,1,8.10058,3.28125,24.74843,24.74843,0,0,1,3.00781,3.89648Q366.77832,471.70312,368.419,474.2998Z" transform="translate(-40.75824 -442.68275)"/><path class="cls-2" d="M449.15137,553.3916V474.43652q0-6.15234,2.80273-9.22851a9.35187,9.35187,0,0,1,7.2461-3.07617,9.67565,9.67565,0,0,1,7.417,3.042q2.83593,3.04248,2.83691,9.26269V553.3916q0,6.22119-2.83691,9.29688a9.62034,9.62034,0,0,1-7.417,3.07617,9.33262,9.33262,0,0,1-7.21192-3.11035Q449.15088,559.54443,449.15137,553.3916Z" transform="translate(-40.75824 -442.68275)"/><path class="cls-2" d="M577.53027,532.40527a26.71294,26.71294,0,0,1-2.35839,10.35645,37.35181,37.35181,0,0,1-7.417,10.9375A37.83748,37.83748,0,0,1,554.835,562.415a46.45623,46.45623,0,0,1-18.32031,3.34961,64.05089,64.05089,0,0,1-14.42383-1.50391,40.48483,40.48483,0,0,1-11.792-4.68262,39.76363,39.76363,0,0,1-9.74121-8.374A49.73764,49.73764,0,0,1,493.79,540.64258a55.00089,55.00089,0,0,1-4.2041-12.47559,67.9713,67.9713,0,0,1-1.40137-14.082,62.456,62.456,0,0,1,3.52051-21.66992,46.22546,46.22546,0,0,1,10.083-16.37207A43.9883,43.9883,0,0,1,517.169,465.68652a49.81368,49.81368,0,0,1,18.79882-3.55468,46.97554,46.97554,0,0,1,21.66993,4.85351q9.501,4.85449,14.56054,11.99707,5.0581,7.144,5.0586,13.501a8.8004,8.8004,0,0,1-2.46094,6.15234,7.802,7.802,0,0,1-5.94727,2.666q-3.89647,0-5.84472-1.84571a25.55238,25.55238,0,0,1-4.34082-6.35742,30.58742,30.58742,0,0,0-9.33106-11.14258,22.78734,22.78734,0,0,0-13.22754-3.6914q-12.50976,0-19.92676,9.50195-7.418,9.50244-7.417,27.002,0,11.68945,3.28125,19.44825a24.54785,24.54785,0,0,0,9.29688,11.58691,25.65452,25.65452,0,0,0,14.082,3.82813,24.71508,24.71508,0,0,0,14.7998-4.34082q6.04982-4.34034,9.126-12.749a21.62475,21.62475,0,0,1,3.21289-6.46q1.91309-2.49462,6.15234-2.49512a8.60674,8.60674,0,0,1,6.22071,2.5293A8.42509,8.42509,0,0,1,577.53027,532.40527Z" transform="translate(-40.75824 -442.68275)"/><path class="cls-2" d="M661.81738,479.49512H616.085v24.60937h42.10938q4.64794,0,6.93847,2.085a7.08879,7.08879,0,0,1,2.29,5.50293,7.3559,7.3559,0,0,1-2.25586,5.57129q-2.25585,2.15332-6.97265,2.15332H616.085v28.50586h47.30469q4.78418,0,7.21191,2.22168a7.63265,7.63265,0,0,1,2.42676,5.91309,7.46946,7.46946,0,0,1-2.42676,5.77636q-2.42724,2.22217-7.21191,2.22168h-55.166q-6.63135,0-9.53613-2.93945-2.90625-2.93847-2.90527-9.502v-75.332a16.89085,16.89085,0,0,1,1.29882-7.14356,8.0646,8.0646,0,0,1,4.06739-4.0332,17.10277,17.10277,0,0,1,7.07519-1.26465h53.59375q4.853,0,7.21192,2.15332a7.2774,7.2774,0,0,1,2.3584,5.63965,7.35746,7.35746,0,0,1-2.3584,5.708Q666.6709,479.49511,661.81738,479.49512Z" transform="translate(-40.75824 -442.68275)"/><path class="cls-2" d="M774.542,532.40527a26.71279,26.71279,0,0,1-2.3584,10.35645,37.35157,37.35157,0,0,1-7.417,10.9375,37.83767,37.83767,0,0,1-12.91992,8.71582,46.45623,46.45623,0,0,1-18.32031,3.34961,64.05089,64.05089,0,0,1-14.42383-1.50391,40.48483,40.48483,0,0,1-11.792-4.68262,39.76363,39.76363,0,0,1-9.74121-8.374,49.73764,49.73764,0,0,1-6.76758-10.56152,55.00089,55.00089,0,0,1-4.2041-12.47559,67.9713,67.9713,0,0,1-1.40137-14.082A62.456,62.456,0,0,1,688.7168,492.415a46.22544,46.22544,0,0,1,10.083-16.37207,43.98839,43.98839,0,0,1,15.38086-10.35645,49.81377,49.81377,0,0,1,18.79883-3.55468,46.97546,46.97546,0,0,1,21.66992,4.85351q9.501,4.85449,14.56055,11.99707,5.0581,7.144,5.05859,13.501a8.80039,8.80039,0,0,1-2.46093,6.15234,7.802,7.802,0,0,1-5.94727,2.666q-3.89648,0-5.84473-1.84571a25.55293,25.55293,0,0,1-4.34082-6.35742,30.58731,30.58731,0,0,0-9.33105-11.14258,22.78736,22.78736,0,0,0-13.22754-3.6914q-12.50976,0-19.92676,9.50195-7.418,9.50244-7.417,27.002,0,11.68945,3.28125,19.44825a24.54785,24.54785,0,0,0,9.29688,11.58691,25.65452,25.65452,0,0,0,14.082,3.82813,24.7151,24.7151,0,0,0,14.7998-4.34082q6.0498-4.34034,9.126-12.749a21.62475,21.62475,0,0,1,3.21289-6.46q1.91309-2.49462,6.15234-2.49512a8.60676,8.60676,0,0,1,6.22071,2.5293A8.42509,8.42509,0,0,1,774.542,532.40527Z" transform="translate(-40.75824 -442.68275)"/><path class="cls-2" d="M856.915,552.708l-4.78516-12.57813H811.3877l-4.78516,12.85157q-2.80371,7.52051-4.78516,10.15136-1.98339,2.63086-6.49414,2.63184a9.52068,9.52068,0,0,1-6.76758-2.80274,8.58014,8.58014,0,0,1-2.93945-6.35742,14.17328,14.17328,0,0,1,.68359-4.23828q.68262-2.187,2.25586-6.084l25.63477-65.07813q1.09278-2.80224,2.63184-6.7334a34.0746,34.0746,0,0,1,3.28125-6.52832,13.3338,13.3338,0,0,1,4.58007-4.2041,14.04392,14.04392,0,0,1,7.00684-1.60644,14.20063,14.20063,0,0,1,7.07519,1.60644,13.61871,13.61871,0,0,1,4.58008,4.13574,29.04666,29.04666,0,0,1,2.93946,5.43457q1.19531,2.90625,3.042,7.75879l26.18164,64.668q3.07617,7.38282,3.07617,10.73242a8.88549,8.88549,0,0,1-2.90527,6.39161,9.55129,9.55129,0,0,1-7.00684,2.90527,9.08474,9.08474,0,0,1-4.10156-.85449,8.39361,8.39361,0,0,1-2.87109-2.32422,21.33751,21.33751,0,0,1-2.49512-4.51172Q857.87208,555.03321,856.915,552.708Zm-40.19531-27.82227h29.9414l-15.10742-41.35742Z" transform="translate(-40.75824 -442.68275)"/><path class="cls-2" d="M932.38379,525.02246H913.79V553.3916q0,6.085-2.87109,9.22852a10.11654,10.11654,0,0,1-14.62891.03418q-2.80371-3.10987-2.80274-9.126V476.28223q0-6.69873,3.07618-9.57032,3.07617-2.87109,9.77539-2.87109h26.04492q11.55176,0,17.77344,1.77734a26.4784,26.4784,0,0,1,10.62988,5.67383,25.59631,25.59631,0,0,1,6.80176,9.707,34.18227,34.18227,0,0,1,2.32422,12.91993q0,15.31347-9.4336,23.208Q951.0459,525.02246,932.38379,525.02246Zm-4.92188-45.9375H913.79V509.71h13.67187a40.82813,40.82813,0,0,0,11.99707-1.50391,13.9766,13.9766,0,0,0,7.34864-4.92187,14.69145,14.69145,0,0,0,2.52929-8.95508,15.18637,15.18637,0,0,0-3.89648-10.80078Q941.06495,479.08546,927.46191,479.085Z" transform="translate(-40.75824 -442.68275)"/></svg>