<svg id="Camada_1" data-name="Camada 1" xmlns="http://www.w3.org/2000/svg" xmlns:xlink="http://www.w3.org/1999/xlink" viewBox="0 0 302.45455 172"><defs><style>.cls-1{fill:url(#Gradiente_sem_nome_195);}.cls-2{fill:#fff;}</style><linearGradient id="Gradiente_sem_nome_195" x1="406.77457" y1="432.18756" x2="617.04026" y2="642.45325" gradientUnits="userSpaceOnUse"><stop offset="0" stop-color="#00c7ff"/><stop offset="1" stop-color="#0045ff"/></linearGradient></defs><path class="cls-1" d="M663.14723,494.71459c-1.90782-32.65342-41.2455-58.91892-90.29756-60.3695v-.06623h-42.354v-1.34719A6.93166,6.93166,0,0,0,523.564,426H500.436a6.93168,6.93168,0,0,0-6.93167,6.93167v1.34719h-42.354v.06623c-49.05206,1.45058-88.38974,27.71608-90.29756,60.3695h-.08005v98.18735A10.206,10.206,0,0,0,362.13615,598c23.387-18.04775,81.97919-30.84534,150.57031-30.84534,67.61836,0,125.51634,12.43768,149.55126,30.08114a10.20806,10.20806,0,0,0,.96956-4.33386V494.71459Z" transform="translate(-360.77272 -426)"/><circle class="cls-2" cx="96.94724" cy="92.47425" r="36.15726"/><circle class="cls-2" cx="205.50731" cy="92.47425" r="36.15726"/></svg>