<svg id="Camada_1" data-name="Camada 1" xmlns="http://www.w3.org/2000/svg" xmlns:xlink="http://www.w3.org/1999/xlink" viewBox="0 0 714.93794 133.78082"><defs><style>.cls-1{fill:#fff;}.cls-2{fill:url(#Gradiente_sem_nome);}</style><linearGradient id="Gradiente_sem_nome" x1="84.86889" y1="-275.88418" x2="248.41257" y2="-439.42788" gradientTransform="matrix(1, 0, 0, -1, -35.02121, -263.07153)" gradientUnits="userSpaceOnUse"><stop offset="0" stop-color="#00c7ff"/><stop offset="1" stop-color="#0045ff"/></linearGradient></defs><path class="cls-1" d="M399.15775,98.18612V59.7267c0-22.12751,7.63922-35.69349,32.00572-35.69349,23.57585,0,30.68813,12.64416,30.68813,30.8202v5.7918a3.42787,3.42787,0,0,1-3.42786,3.42786H442.23055a3.42787,3.42787,0,0,1-3.42786-3.42786h0V53.40462c0-6.19043-.13207-12.7758-7.63922-12.7758-7.50762,0-8.16616,6.717-8.16616,13.17068v50.18175c0,7.24435,1.18554,13.03947,8.16616,13.03947,7.37554,0,7.63922-6.58574,7.63922-13.03947V96.21413a3.42787,3.42787,0,0,1,3.42786-3.42786h16.19319a3.42787,3.42787,0,0,1,3.42786,3.42786v5.79137c0,18.176-6.849,31.742-30.68813,31.742C406.797,133.74756,399.15775,119.78622,399.15775,98.18612Z" transform="translate(-14.06765 -8)"/><path class="cls-1" d="M478.08478,25.482H519.379a3.324,3.324,0,0,1,3.324,3.32405v9.42057a3.324,3.324,0,0,1-3.324,3.32405H501.66063a3.324,3.324,0,0,0-3.324,3.32405h0V64.70052a3.324,3.324,0,0,0,3.324,3.32405h11.92325a3.324,3.324,0,0,1,3.324,3.32405v9.68384a3.324,3.324,0,0,1-3.324,3.324H501.66063a3.324,3.324,0,0,0-3.324,3.32405v25.2256a3.324,3.324,0,0,0,3.324,3.324h17.98164a3.324,3.324,0,0,1,3.324,3.324v9.28894a3.324,3.324,0,0,1-3.324,3.324H478.08478a3.324,3.324,0,0,1-3.324-3.324V28.806A3.324,3.324,0,0,1,478.08478,25.482Z" transform="translate(-14.06765 -8)"/><path class="cls-1" d="M665.12617,29.44372a3.96177,3.96177,0,0,1,3.96176-3.96176h31.86295c19.09787,0,28.05471,11.19539,28.05471,30.95184,0,24.62973-13.56683,30.4253-30.8202,30.4253h-5.52156a3.96176,3.96176,0,0,0-3.96175,3.96175v37.38449a3.96179,3.96179,0,0,1-3.96176,3.96176H669.08793a3.96179,3.96179,0,0,1-3.96176-3.96176Zm31.47875,40.95137c8.6927,0,10.27311-4.60961,10.27311-14.35622,0-8.03455-.92181-13.96132-10.40518-13.96132h-3.80912a3.96177,3.96177,0,0,0-3.96176,3.96176v20.394a3.96176,3.96176,0,0,0,3.96176,3.96175Z" transform="translate(-14.06765 -8)"/><path class="cls-1" d="M361.09235,59.81182v65.32982a7.02544,7.02544,0,0,0,7.02543,7.02551h9.52533a7.02552,7.02552,0,0,0,7.02553-7.02551h0V59.81182Z" transform="translate(-14.06765 -8)"/><path class="cls-1" d="M377.49481,25.48191H328.38119V25.482h-2.51725a.33475.33475,0,0,0-.33473.33474h0V67.51059a1.90471,1.90471,0,0,1-3.65724.74594L304.15864,26.64076a1.90474,1.90474,0,0,0-1.75252-1.15875H288.97448a1.90466,1.90466,0,0,0-1.90472,1.90459v102.876a1.90464,1.90464,0,0,0,1.90466,1.90464h16.34243a1.90471,1.90471,0,0,0,1.90472-1.90464V86.8498a1.90465,1.90465,0,0,1,3.676-.70011l17.71167,44.81285a1.90468,1.90468,0,0,0,1.77136,1.20456H343.1177a1.90465,1.90465,0,0,0,1.90466-1.90464V49.0582h32.47245a7.02547,7.02547,0,0,0,7.02553-7.0254V32.50744a7.0255,7.0255,0,0,0-7.02548-7.02553Z" transform="translate(-14.06765 -8)"/><path class="cls-1" d="M590.0709,118.10177l-1.85306,9.81011a3.589,3.589,0,0,0,3.52669,4.25522H606.572a3.589,3.589,0,0,0,3.55111-3.0689l1.54625-10.55766a1.32751,1.32751,0,0,0-1.31344-1.51982H591.37527A1.32748,1.32748,0,0,0,590.0709,118.10177Z" transform="translate(-14.06765 -8)"/><path class="cls-1" d="M653.53138,127.92038,634.981,28.4132a3.589,3.589,0,0,0-3.52818-2.93121H610.54039a3.58893,3.58893,0,0,0-3.52659,2.92284l-15.14766,80.19265a1.32757,1.32757,0,0,0,1.30437,1.57382H611.748a1.32748,1.32748,0,0,0,1.31344-1.1351l4.51951-30.85887a3.589,3.589,0,0,1,7.10223,0l7.4583,50.921a3.589,3.589,0,0,0,3.55111,3.0689H650.0032a3.589,3.589,0,0,0,3.52818-4.24682Z" transform="translate(-14.06765 -8)"/><path class="cls-1" d="M609.92641,117.02067h-45.733c-6.98063,0-8.16622-5.79513-8.16622-13.03948V53.79944c0-6.45372.6586-13.17067,8.16622-13.17067,7.5072,0,7.63922,6.58534,7.63922,12.77578v7.24056A3.42786,3.42786,0,0,0,575.2605,64.073h16.1932a3.42787,3.42787,0,0,0,3.42786-3.42786h0V54.85333c0-18.176-7.11234-30.8202-30.68813-30.8202-24.36648,0-32.0057,13.566-32.0057,35.69349V98.18607c0,21.6001,7.63922,35.56144,32.0057,35.56144h41.34729a4.53363,4.53363,0,0,0,4.486-3.87838l1.59083-10.89229a1.70906,1.70906,0,0,0-1.69116-1.95617Z" transform="translate(-14.06765 -8)"/><path class="cls-2" d="M249.25315,61.44587c-1.48391-25.39768-32.08057-45.82685-70.233-46.9551v-.05151H146.07737V13.39142A5.39141,5.39141,0,0,0,140.686,8H122.69709a5.39144,5.39144,0,0,0-5.39142,5.39142v1.04784H84.36293v.05151c-38.15245,1.12825-68.74912,21.55744-70.233,46.9551h-.06226v76.36968a7.93811,7.93811,0,0,0,1.06047,3.96527c18.19026-14.03745,63.763-23.99138,117.11288-23.99138,52.59325,0,97.62608,9.674,116.32027,23.397a7.93963,7.93963,0,0,0,.75413-3.37084V61.44587Z" transform="translate(-14.06765 -8)"/><circle class="cls-1" cx="75.40512" cy="71.92604" r="28.12295"/><circle class="cls-1" cx="159.84264" cy="71.92604" r="28.12294"/></svg>