<svg id="Camada_1" data-name="Camada 1" xmlns="http://www.w3.org/2000/svg" xmlns:xlink="http://www.w3.org/1999/xlink" viewBox="0 0 326.36575 197.6512"><defs><style>.cls-1{fill:url(#Gradiente_sem_nome_2);}.cls-2{fill:#fff;}.cls-3{fill:#00db29;fill-rule:evenodd;}</style><linearGradient id="Gradiente_sem_nome_2" x1="713.45191" y1="198.79309" x2="923.7176" y2="-11.47257" gradientTransform="matrix(1, 0, 0, -1, -307, 631)" gradientUnits="userSpaceOnUse"><stop offset="0" stop-color="#00c7ff"/><stop offset="1" stop-color="#0045ff"/></linearGradient></defs><path class="cls-1" d="M662.82457,494.73393c-1.90783-32.65341-41.24548-58.91891-90.29754-60.3695v-.06623H530.173V432.951a6.93166,6.93166,0,0,0-6.93164-6.93167h-23.128a6.93168,6.93168,0,0,0-6.93167,6.93167v1.3472h-42.354v.06623c-49.05207,1.45059-88.38974,27.71606-90.29755,60.3695h-.08005v98.18738a10.20579,10.20579,0,0,0,1.3634,5.098c23.387-18.04773,81.97919-30.84533,150.57029-30.84533,67.61834,0,125.51635,12.43768,149.55127,30.08111a10.20768,10.20768,0,0,0,.96954-4.33386V494.73393Z" transform="translate(-360.45009 -426.01933)"/><circle class="cls-2" cx="96.94722" cy="92.47425" r="36.15726"/><circle class="cls-2" cx="205.50729" cy="92.47425" r="36.15726"/><g id="Camada_2" data-name="Camada 2"><g id="Camada_1-2" data-name="Camada 1-2"><path class="cls-3" d="M678.40029,582.98935h-.24217a8.42205,8.42205,0,0,1-8.41446-8.42881V538.24045a8.42142,8.42142,0,0,1,8.414-8.42883h.24288a8.42207,8.42207,0,0,1,8.4153,8.42883h0v36.32009a8.42207,8.42207,0,0,1-8.4153,8.42881Zm-19.64755,13.416h-7.93251l.46968,18.72883a8.53636,8.53636,0,1,1-17.07271,0l-.28617-18.72883H622.57062l.11078,18.72883a8.53635,8.53635,0,1,1-17.0727,0l.07277-18.72883h-7.07412a7.7728,7.7728,0,0,1-7.76419-7.78139h0v-56.9602h75.674V588.624a7.7728,7.7728,0,0,1-7.76443,7.78111Zm-48.2045-98.03228s-6.66791-11.57981-7.24671-12.491.99854-1.61051,1.38465-.92471c.38611.68527,7.50145,12.56862,7.50145,12.56862a37.8525,37.8525,0,0,1,32.32411-.31333s7.3202-11.69819,7.70122-12.25529c.38118-.55752,1.717.30082,1.38412.92471-.33214.62335-7.34071,12.1923-7.34071,12.1923A37.93768,37.93768,0,0,1,666.346,528.035l-75.35784.28724A37.93265,37.93265,0,0,1,610.54824,498.37307Zm34.97528,16.63559a3.46781,3.46781,0,1,0-3.45611-3.47948l0,.0119a3.46148,3.46148,0,0,0,3.45535,3.46758h.00078Zm-34.60964,0a3.46781,3.46781,0,1,0-3.46265-3.473v.00539a3.46521,3.46521,0,0,0,3.46254,3.46758Zm-32.18432,67.98069h-.24216a8.42206,8.42206,0,0,1-8.41471-8.42881V538.24045a8.42141,8.42141,0,0,1,8.414-8.42883h.24288a8.42141,8.42141,0,0,1,8.41477,8.428v36.32088A8.42206,8.42206,0,0,1,578.72956,582.98935Z" transform="translate(-360.45009 -426.01933)"/></g></g></svg>