<svg id="Camada_1" data-name="Camada 1" xmlns="http://www.w3.org/2000/svg" xmlns:xlink="http://www.w3.org/1999/xlink" viewBox="0 0 409.92002 233.28001"><defs><style>.cls-1,.cls-9{fill:#fff;}.cls-2{fill:url(#Gradiente_sem_nome_195);}.cls-3,.cls-4,.cls-5,.cls-6,.cls-7,.cls-8,.cls-9{fill-rule:evenodd;}.cls-3{fill:url(#Gradiente_sem_nome_6);}.cls-4{fill:url(#Gradiente_sem_nome_5);}.cls-5{fill:url(#Gradiente_sem_nome_3);}.cls-6{fill:url(#Gradiente_sem_nome_4);}.cls-7,.cls-8,.cls-9{isolation:isolate;}.cls-7{opacity:0.2;}.cls-8{opacity:0.12;}.cls-9{opacity:0.25;}</style><linearGradient id="Gradiente_sem_nome_195" x1="406.77457" y1="432.18756" x2="617.04026" y2="642.45325" gradientUnits="userSpaceOnUse"><stop offset="0" stop-color="#00c7ff"/><stop offset="1" stop-color="#0045ff"/></linearGradient><linearGradient id="Gradiente_sem_nome_6" x1="4120.54461" y1="-222.07451" x2="4052.98893" y2="-187.20282" gradientTransform="translate(-4800.25141 1058.45139) scale(1.3204 2.55799)" gradientUnits="userSpaceOnUse"><stop offset="0" stop-color="#00a0ff"/><stop offset="0.007" stop-color="#00a1ff"/><stop offset="0.26" stop-color="#00beff"/><stop offset="0.512" stop-color="#00d2ff"/><stop offset="0.76" stop-color="#00dfff"/><stop offset="1" stop-color="#00e3ff"/></linearGradient><linearGradient id="Gradiente_sem_nome_5" x1="4464.44831" y1="318.31687" x2="4340.47199" y2="318.31687" gradientTransform="translate(-3926.82592 272.3762) scale(1.03738 0.87346)" gradientUnits="userSpaceOnUse"><stop offset="0" stop-color="#ffe000"/><stop offset="0.409" stop-color="#ffbd00"/><stop offset="0.775" stop-color="orange"/><stop offset="1" stop-color="#ff9c00"/></linearGradient><linearGradient id="Gradiente_sem_nome_3" x1="3896.11598" y1="64.20995" x2="3825.11955" y2="156.31477" gradientTransform="translate(-5981.65501 478.29396) scale(1.70381 1.31331)" gradientUnits="userSpaceOnUse"><stop offset="0" stop-color="#ff3a44"/><stop offset="1" stop-color="#c31162"/></linearGradient><linearGradient id="Gradiente_sem_nome_4" x1="3841.42762" y1="-24.07392" x2="3873.12954" y2="17.07699" gradientTransform="translate(-5981.65501 476.66021) scale(1.70381 1.31263)" gradientUnits="userSpaceOnUse"><stop offset="0" stop-color="#32a071"/><stop offset="0.069" stop-color="#2da771"/><stop offset="0.476" stop-color="#15cf74"/><stop offset="0.801" stop-color="#06e775"/><stop offset="1" stop-color="#00f076"/></linearGradient></defs><rect class="cls-1" width="409.92002" height="233.28001"/><path class="cls-2" d="M663.14723,494.71459c-1.90782-32.65342-41.2455-58.91892-90.29756-60.3695v-.06623h-42.354v-1.34719A6.93166,6.93166,0,0,0,523.564,426H500.436a6.93168,6.93168,0,0,0-6.93167,6.93167v1.34719h-42.354v.06623c-49.05206,1.45058-88.38974,27.71608-90.29756,60.3695h-.08005v98.18735A10.206,10.206,0,0,0,362.13615,598c23.387-18.04775,81.97919-30.84534,150.57031-30.84534,67.61836,0,125.51634,12.43768,149.55126,30.08114a10.20806,10.20806,0,0,0,.96956-4.33386V494.71459Z" transform="translate(-307 -395)"/><circle class="cls-1" cx="150.71996" cy="123.47425" r="36.15726"/><circle class="cls-1" cx="259.28004" cy="123.47425" r="36.15726"/><g id="g1231"><path id="path1192" class="cls-3" d="M580.10177,484.15416c-1.53707,1.652-2.42052,4.19461-2.42052,7.49858V609.17363c0,3.304.88345,5.8466,2.478,7.44112l.41659.35195,65.84962-65.84963v-1.4796l-65.90708-65.83526Z" transform="translate(-307 -395)"/><path id="path1203" class="cls-4" d="M668.33222,573.15315,646.368,551.18172v-1.53706l21.97142-21.97143.47405.29448L694.79991,542.735c7.44112,4.19461,7.44112,11.10422,0,15.35629l-25.98647,14.76733c-.00718,0-.48123.29448-.48123.29448Z" transform="translate(-307 -395)"/><path id="path1210" class="cls-5" d="M668.80627,572.85866,646.368,550.41319,580.10177,616.6794c2.42052,2.60008,6.493,2.89458,11.04676.35195l77.65774-44.17269" transform="translate(-307 -395)"/><path id="path1223" class="cls-6" d="M668.80627,527.9749l-77.65774-44.11523c-4.54655-2.60008-8.62624-2.24813-11.04676.35195l66.259,66.20157Z" transform="translate(-307 -395)"/><path id="path1225" class="cls-7" d="M668.33222,572.38461,591.206,616.20535c-4.30953,2.478-8.15219,2.3056-10.63017.05746l-.41659.41659.41659.35195c2.478,2.24095,6.32064,2.42052,10.63017-.05746l77.65774-44.11523Z" transform="translate(-307 -395)"/><path id="path1227" class="cls-8" d="M694.79274,557.3228l-26.518,15.06181.47405.47405,25.98646-14.76733c3.72057-2.126,5.55212-4.8985,5.55212-7.67814-.237,2.54262-2.126,4.96314-5.49465,6.90961Z" transform="translate(-307 -395)"/><path id="path1229" class="cls-9" d="M591.14853,484.62821l103.64421,58.88255c3.36862,1.889,5.25762,4.367,5.55211,6.90961,0-2.77246-1.83155-5.55211-5.55211-7.67815L591.14853,483.85967c-7.44112-4.25207-13.46728-.71107-13.46728,7.79307v.76854C577.68125,483.91714,583.70741,480.4336,591.14853,484.62821Z" transform="translate(-307 -395)"/></g></svg>