<svg id="Camada_1" data-name="Camada 1" xmlns="http://www.w3.org/2000/svg" viewBox="0 0 523.45811 129.95301"><defs><style>.cls-1{fill:#fff;}</style></defs><path class="cls-1" d="M467.7398,532.807v-45.5539c0-26.20928,9.04842-42.27774,37.9097-42.27774,27.92481,0,36.34907,14.97658,36.34907,36.50548v6.86019a4.06018,4.06018,0,0,1-4.06018,4.06018H518.7581a4.06018,4.06018,0,0,1-4.06018-4.06018v-8.57622c0-7.33238-.15642-15.1325-9.04842-15.1325-8.8925,0-9.67257,7.956-9.67257,15.60023v59.4386c0,8.58069,1.40422,15.44483,9.67257,15.44483,8.73609,0,9.04842-7.80062,9.04842-15.44483v-9.19986a4.06018,4.06018,0,0,1,4.06018-4.06018h19.18029a4.06018,4.06018,0,0,1,4.06018,4.06018V537.331c0,21.5289-8.11244,37.59737-36.34907,37.59737C476.78822,574.92836,467.7398,558.39165,467.7398,532.807Z" transform="translate(-334.97535 -444.97537)"/><path class="cls-1" d="M561.22623,446.69142h48.91165a3.93722,3.93722,0,0,1,3.93722,3.93722V461.787a3.93723,3.93723,0,0,1-3.93722,3.93722H589.151a3.93722,3.93722,0,0,0-3.93722,3.93722v23.48294a3.93722,3.93722,0,0,0,3.93722,3.93722h14.12271a3.93722,3.93722,0,0,1,3.93722,3.93722V512.489a3.93723,3.93723,0,0,1-3.93722,3.93722H589.151a3.93722,3.93722,0,0,0-3.93722,3.93722V550.2423a3.93722,3.93722,0,0,0,3.93722,3.93722H610.4497a3.93722,3.93722,0,0,1,3.93722,3.93722v11.00245a3.93722,3.93722,0,0,1-3.93722,3.93722H561.22623a3.93722,3.93722,0,0,1-3.93722-3.93722V450.62864A3.93722,3.93722,0,0,1,561.22623,446.69142Z" transform="translate(-334.97535 -444.97537)"/><path class="cls-1" d="M782.77048,451.384a4.69258,4.69258,0,0,1,4.69258-4.69257h37.74057c22.62079,0,33.22983,13.26055,33.22983,36.6614,0,29.17311-16.06948,36.03775-36.50548,36.03775h-6.54012a4.69258,4.69258,0,0,0-4.69258,4.69258v44.28069a4.69256,4.69256,0,0,1-4.69257,4.69257H787.46306a4.69257,4.69257,0,0,1-4.69258-4.69257ZM820.056,499.88953c10.29621,0,12.16816-5.45993,12.16816-17.00444,0-9.51666-1.09189-16.53671-12.32458-16.53671h-4.51175a4.69257,4.69257,0,0,0-4.69258,4.69257v24.156a4.69258,4.69258,0,0,0,4.69258,4.69258Z" transform="translate(-334.97535 -444.97537)"/><path class="cls-1" d="M422.65263,487.35391v77.381a8.32143,8.32143,0,0,0,8.32149,8.3215h11.28232a8.32148,8.32148,0,0,0,8.3215-8.3215v-77.381Z" transform="translate(-334.97535 -444.97537)"/><path class="cls-1" d="M442.08079,446.69134H383.90736v.00007h-2.98162a.39648.39648,0,0,0-.39647.39647v49.385a2.25606,2.25606,0,0,1-4.33189.88356L355.2165,448.06392a2.25605,2.25605,0,0,0-2.07581-1.37251H337.23143a2.256,2.256,0,0,0-2.25608,2.256v121.853a2.256,2.256,0,0,0,2.25608,2.256h19.357a2.25608,2.25608,0,0,0,2.25608-2.256V519.37955a2.256,2.256,0,0,1,4.35413-.82924l20.97888,53.0793a2.256,2.256,0,0,0,2.09812,1.42677h15.08663a2.256,2.256,0,0,0,2.256-2.256V474.61665h38.46254a8.32143,8.32143,0,0,0,8.3215-8.3215V455.01283A8.32148,8.32148,0,0,0,442.08079,446.69134Z" transform="translate(-334.97535 -444.97537)"/><path class="cls-1" d="M693.87,556.39647l-2.19489,11.61977a4.2511,4.2511,0,0,0,4.17723,5.04014H713.415a4.25108,4.25108,0,0,0,4.20621-3.635l1.83147-12.50518A1.57232,1.57232,0,0,0,717.897,555.116H695.415A1.57232,1.57232,0,0,0,693.87,556.39647Z" transform="translate(-334.97535 -444.97537)"/><path class="cls-1" d="M769.03685,568.02625,747.06456,450.16334a4.251,4.251,0,0,0-4.179-3.47193H718.11544a4.251,4.251,0,0,0-4.17715,3.462l-17.94186,94.98552a1.57231,1.57231,0,0,0,1.545,1.86415h22.00437a1.57231,1.57231,0,0,0,1.55572-1.34447l5.3532-36.55129a4.25105,4.25105,0,0,1,8.41235,0l8.8341,60.31416a4.251,4.251,0,0,0,4.20615,3.635h16.95047A4.25107,4.25107,0,0,0,769.03685,568.02625Z" transform="translate(-334.97535 -444.97537)"/><path class="cls-1" d="M717.38825,555.116H663.219c-8.26834,0-9.6726-6.86415-9.6726-15.44482V480.23258c0-7.64423.78007-15.60024,9.6726-15.60024,8.892,0,9.04841,7.80012,9.04841,15.13249v8.5762a4.06018,4.06018,0,0,0,4.06018,4.06018H695.5079a4.06018,4.06018,0,0,0,4.06019-4.06018v-6.86016c0-21.5289-8.4243-36.5055-36.34906-36.5055-28.86128,0-37.9097,16.06845-37.9097,42.27773V532.807c0,25.58461,9.04842,42.12136,37.9097,42.12136h48.97449a5.36993,5.36993,0,0,0,5.31351-4.59382l1.88432-12.90162A2.02439,2.02439,0,0,0,717.38825,555.116Z" transform="translate(-334.97535 -444.97537)"/></svg>