<svg id="Camada_1" data-name="Camada 1" xmlns="http://www.w3.org/2000/svg" viewBox="0 0 503.1327 106"><defs><style>.cls-1{fill:#fff;}</style></defs><path class="cls-1" d="M387.79576,530.23558V493.18806c0-21.40991,8.7109-34.52872,36.41782-34.52872,26.86733,0,34.94852,12.27921,34.94852,29.80594v5.66733a3.72875,3.72875,0,0,1-3.88317,3.35841H436.9126c-2.204,0-3.88317-1.4693-3.88317-3.35841h0V486.996c0-5.98217-.2099-12.2792-8.71089-12.2792-8.60594,0-9.34059,6.50693-9.34059,12.699V535.798c0,7.03168,1.36436,12.59406,9.34059,12.59406,8.396,0,8.71089-6.402,8.71089-12.59406v-7.45148a3.72876,3.72876,0,0,1,3.88317-3.35841h18.36633c2.204,0,3.88317,1.46931,3.88317,3.35841h0v5.66733c0,17.52673-7.76633,30.64554-34.94852,30.64554C396.4017,564.65934,387.79576,551.12073,387.79576,530.23558Z" transform="translate(-260.07101 -458.65934)"/><path class="cls-1" d="M477.63339,460.0237h47.01783c2.099,0,3.77822,1.4693,3.77822,3.14851v9.1307c0,1.78415-1.67921,3.14851-3.77822,3.14851H504.50071c-2.099,0-3.77822,1.46931-3.77822,3.14851v19.206c0,1.78415,1.67921,3.14851,3.77822,3.14851h13.53861c2.099,0,3.77822,1.46931,3.77822,3.14852v9.34059c0,1.78416-1.67921,3.14852-3.77822,3.14852H504.50071c-2.099,0-3.77822,1.46931-3.77822,3.14851v24.34852c0,1.78416,1.67921,3.14852,3.77822,3.14852h20.46535c2.099,0,3.77822,1.46931,3.77822,3.14851v8.9208c0,1.78415-1.67921,3.14851-3.77822,3.14851H477.63338c-2.099,0-3.77823-1.46931-3.77823-3.14851V463.27716A3.54616,3.54616,0,0,1,477.63339,460.0237Z" transform="translate(-260.07101 -458.65934)"/><path class="cls-1" d="M690.578,463.90687c0-2.099,1.99405-3.88317,4.51286-3.88317h36.20792c21.72476,0,31.905,10.8099,31.905,29.91089,0,23.82376-15.42773,29.38614-35.05346,29.38614h-6.297c-2.5188,0-4.51286,1.67921-4.51286,3.88317v36.103c0,2.099-1.99405,3.88317-4.51285,3.88317H694.98592c-2.5188,0-4.51286-1.67921-4.51286-3.88316l.1049-95.4Zm35.78809,39.56633c9.9703,0,11.64951-4.51288,11.64951-13.85347,0-7.76634-1.0495-13.43366-11.85939-13.43366h-4.303c-2.5188,0-4.51286,1.67921-4.51286,3.88317v19.73069c0,2.099,1.99406,3.88317,4.51286,3.88317Z" transform="translate(-260.07101 -458.65934)"/><path class="cls-1" d="M344.34626,493.18806V556.2633c0,3.77822,3.56832,6.71683,7.97625,6.71683h10.8099c4.40792,0,7.97625-3.04357,7.97625-6.71684h0V493.18806Z" transform="translate(-260.07101 -458.65934)"/><path class="cls-1" d="M363.1324,460.0237H304.36013a.46848.46848,0,0,0-.41981.31485h0v40.301a2.18149,2.18149,0,0,1-2.204,1.88911,2.13636,2.13636,0,0,1-1.99406-1.15445l-20.1505-40.196a2.20819,2.20819,0,0,0-1.99406-1.15445H262.275a2.10124,2.10124,0,0,0-2.204,1.8891h0v99.38812a2.18148,2.18148,0,0,0,2.204,1.8891h18.57624a2.10123,2.10123,0,0,0,2.204-1.88911v-41.9802a2.18149,2.18149,0,0,1,2.204-1.88911,2.20818,2.20818,0,0,1,1.99406,1.15446l20.1505,43.34455a2.03359,2.03359,0,0,0,1.99406,1.15446h14.58812a2.10124,2.10124,0,0,0,2.204-1.88911V482.798h36.94258c4.40792,0,7.97625-3.04356,7.97625-6.71683h0v-9.23564c0-3.77822-3.56835-6.82178-7.97626-6.82178Z" transform="translate(-260.07101 -458.65934)"/><path class="cls-1" d="M605.0433,549.44152l-2.099,9.44554c-.41979,1.88912,1.04951,3.67327,3.25348,4.09307.20991,0,.52475.10495.73466.10495h16.897c1.99405,0,3.77822-1.2594,3.9881-2.93861l1.78417-10.1802a1.31687,1.31687,0,0,0-1.25941-1.46931H606.5126A1.48584,1.48584,0,0,0,605.0433,549.44152Z" transform="translate(-260.07101 -458.65934)"/><path class="cls-1" d="M677.35419,558.992l-21.2-96.13465a3.83669,3.83669,0,0,0-3.98811-2.83366H628.34229a4.13242,4.13242,0,0,0-3.9881,2.83366l-17.21188,77.45347a1.23973,1.23973,0,0,0,1.15446,1.46931H629.7067a1.51092,1.51092,0,0,0,1.4693-1.04951l5.14257-29.80594c.31484-1.88911,2.41385-3.14851,4.61782-2.93862a3.823,3.823,0,0,1,3.46335,2.93862l8.501,49.11684c.20991,1.6792,1.994,2.93861,3.9881,2.93861h16.26733c2.30892,0,4.09306-1.57426,4.09306-3.46337A.78641.78641,0,0,0,677.35419,558.992Z" transform="translate(-260.07101 -458.65934)"/><path class="cls-1" d="M627.71258,548.392H575.65713c-7.97624,0-9.34059-5.66732-9.34059-12.59406V487.41578c0-6.19208.73467-12.699,9.34059-12.699s8.71091,6.402,8.71091,12.2792v7.03169a3.72876,3.72876,0,0,0,3.88318,3.35841h18.36634c2.204,0,3.88318-1.4693,3.88318-3.35841h0v-5.66733c.10493-17.42178-7.97627-29.701-34.84358-29.701-27.707,0-36.41783,13.11881-36.41783,34.52872v37.15247c0,20.88515,8.71088,34.31881,36.41783,34.31881h47.12277a5.16587,5.16587,0,0,0,5.14257-3.77822l1.88909-10.495c.20992-.94455-.6297-1.6792-1.67921-1.88911A.79329.79329,0,0,0,627.71258,548.392Z" transform="translate(-260.07101 -458.65934)"/></svg>