<svg id="Camada_1" data-name="Camada 1" xmlns="http://www.w3.org/2000/svg" xmlns:xlink="http://www.w3.org/1999/xlink" viewBox="0 0 409.92002 233.28001"><defs><style>.cls-1{fill:#fff;}.cls-2{fill:url(#Gradiente_sem_nome_195);}.cls-3{fill:url(#Gradiente_sem_nome_2);}</style><linearGradient id="Gradiente_sem_nome_195" x1="406.77457" y1="432.18756" x2="617.04026" y2="642.45325" gradientUnits="userSpaceOnUse"><stop offset="0" stop-color="#00c7ff"/><stop offset="1" stop-color="#0045ff"/></linearGradient><linearGradient id="Gradiente_sem_nome_2" x1="623.2228" y1="179.83902" x2="623.2228" y2="-4.18719" gradientTransform="matrix(0.66667, 0, 0, -0.66667, 213.28499, 616.00003)" gradientUnits="userSpaceOnUse"><stop offset="0" stop-color="#0ed4fc"/><stop offset="1" stop-color="#0c57ef"/></linearGradient></defs><rect class="cls-1" width="409.92002" height="233.28001"/><path class="cls-2" d="M663.14723,494.71459c-1.90782-32.65342-41.2455-58.91892-90.29756-60.3695v-.06623h-42.354v-1.34719A6.93166,6.93166,0,0,0,523.564,426H500.436a6.93168,6.93168,0,0,0-6.93167,6.93167v1.34719h-42.354v.06623c-49.05206,1.45058-88.38974,27.71608-90.29756,60.3695h-.08005v98.18735A10.206,10.206,0,0,0,362.13615,598c23.387-18.04775,81.97919-30.84534,150.57031-30.84534,67.61836,0,125.51634,12.43768,149.55126,30.08114a10.20806,10.20806,0,0,0,.96956-4.33386V494.71459Z" transform="translate(-307 -395)"/><circle class="cls-1" cx="150.71996" cy="123.47425" r="36.15726"/><circle class="cls-1" cx="259.28004" cy="123.47425" r="36.15726"/><path class="cls-3" d="M665.31909,496.10735H592.19932a24.77223,24.77223,0,0,0-24.7822,24.7822v73.13508a24.769,24.769,0,0,0,24.7822,24.76686h73.1351a24.782,24.782,0,0,0,24.7822-24.78219V520.88955A24.79513,24.79513,0,0,0,665.31909,496.10735Z" transform="translate(-307 -395)"/><path class="cls-1" d="M628.2378,524.294l2.48435-4.29394a5.59232,5.59232,0,0,1,9.692,5.58213l-23.93875,41.43656h17.3138c5.6128,0,8.75658,6.59428,6.31824,11.16426H589.34692a5.58212,5.58212,0,1,1,0-11.16425h14.23136l18.2186-31.57583-5.68948-9.87608a5.59232,5.59232,0,0,1,9.692-5.58213Zm-21.53107,59.63983-5.36743,9.30866a5.59231,5.59231,0,1,1-9.692-5.58212l3.98724-6.901c4.50864-1.39553,8.17383-.322,11.07224,3.17445Zm46.22125-16.8844h14.52273a5.58213,5.58213,0,1,1,0,11.16426h-8.06648l5.44411,9.44667a5.59231,5.59231,0,1,1-9.692,5.58212q-13.75595-23.8544-20.62627-35.73175c-4.67733-8.06649-1.33419-16.16364,1.96295-18.90869q5.49777,9.43134,16.455,28.44738Z" transform="translate(-307 -395)"/></svg>