<?xml version="1.0" encoding="utf-8"?>
<!-- Generator: Adobe Illustrator 26.0.3, SVG Export Plug-In . SVG Version: 6.00 Build 0)  -->
<svg version="1.1" id="Camada_1" xmlns="http://www.w3.org/2000/svg" xmlns:xlink="http://www.w3.org/1999/xlink" x="0px" y="0px"
	 viewBox="0 0 690.6 117.8" style="enable-background:new 0 0 690.6 117.8;" xml:space="preserve">
<style type="text/css">
	.st0{fill:#FFFFFF;}
	.st1{fill:url(#SVGID_1_);}
</style>
<path class="st0" d="M360.7,82.2V43.7c0-22.1,7.6-35.7,32-35.7c23.6,0,30.7,12.6,30.7,30.8v5.8c0,1.9-1.5,3.4-3.4,3.4l0,0h-16.2
	c-1.9,0-3.4-1.5-3.4-3.4c0,0,0,0,0,0l0,0l0,0v-7.2c0-6.2-0.1-12.8-7.6-12.8c-7.5,0-8.2,6.7-8.2,13.2V88c0,7.2,1.2,13,8.2,13
	c7.4,0,7.6-6.6,7.6-13v-7.8c0-1.9,1.5-3.4,3.4-3.4l0,0H420c1.9,0,3.4,1.5,3.4,3.4v0V86c0,18.2-6.8,31.7-30.7,31.7
	C368.4,117.8,360.7,103.8,360.7,82.2z"/>
<path class="st0" d="M439.7,9.5h41.3c1.8,0,3.3,1.5,3.3,3.3c0,0,0,0,0,0l0,0l0,0v9.4c0,1.8-1.5,3.3-3.3,3.3l0,0h-17.7
	c-1.8,0-3.3,1.5-3.3,3.3c0,0,0,0,0,0l0,0l0,0v19.8c0,1.8,1.5,3.3,3.3,3.3h11.9c1.8,0,3.3,1.5,3.3,3.3c0,0,0,0,0,0V65
	c0,1.8-1.5,3.3-3.3,3.3l0,0h-11.9c-1.8,0-3.3,1.5-3.3,3.3l0,0l0,0v25.2c0,1.8,1.5,3.3,3.3,3.3l0,0h18c1.8,0,3.3,1.5,3.3,3.3l0,0l0,0
	v9.3c0,1.8-1.5,3.3-3.3,3.3l0,0h-41.6c-1.8,0-3.3-1.5-3.3-3.3l0,0l0,0v-100C436.3,11,437.8,9.5,439.7,9.5L439.7,9.5z"/>
<path class="st0" d="M626.7,13.5c0-2.2,1.8-4,4-4h31.9c19.1,0,28.1,11.2,28.1,31c0,24.6-13.6,30.4-30.8,30.4h-5.5c-2.2,0-4,1.8-4,4
	v37.4c0,2.2-1.8,4-4,4h-15.7c-2.2,0-4-1.8-4-4L626.7,13.5z M658.2,54.4c8.7,0,10.3-4.6,10.3-14.4c0-8-0.9-14-10.4-14h-3.8
	c-2.2,0-4,1.8-4,4v20.4c0,2.2,1.8,4,4,4L658.2,54.4z"/>
<path class="st0" d="M322.7,43.8v65.3c0,3.9,3.1,7,7,7h9.5c3.9,0,7-3.1,7-7v0l0,0V43.8H322.7z"/>
<path class="st0" d="M339.1,9.5H290v0h-2.5c-0.2,0-0.3,0.1-0.3,0.3c0,0,0,0,0,0l0,0v41.7c0,1.1-0.9,1.9-1.9,1.9
	c-0.8,0-1.5-0.5-1.8-1.2l-17.7-41.6c-0.3-0.7-1-1.2-1.8-1.2h-13.4c-1.1,0-1.9,0.9-1.9,1.9v102.9c0,1.1,0.9,1.9,1.9,1.9h16.3
	c1.1,0,1.9-0.9,1.9-1.9V70.9c0-1.1,0.9-1.9,1.9-1.9c0.8,0,1.5,0.5,1.8,1.2l17.7,44.8c0.3,0.7,1,1.2,1.8,1.2h12.7
	c1.1,0,1.9-0.9,1.9-1.9V33.1h32.5c3.9,0,7-3.1,7-7l0,0v-9.5C346.1,12.6,342.9,9.5,339.1,9.5L339.1,9.5z"/>
<path class="st0" d="M551.6,102.1l-1.9,9.8c-0.4,1.9,0.9,3.8,2.9,4.2c0.2,0,0.4,0.1,0.7,0.1h14.8c1.8,0,3.3-1.3,3.6-3.1l1.5-10.6
	c0.1-0.7-0.4-1.4-1.1-1.5c-0.1,0-0.1,0-0.2,0h-19C552.3,101,551.8,101.5,551.6,102.1z"/>
<path class="st0" d="M615.1,111.9l-18.6-99.5c-0.3-1.7-1.8-2.9-3.5-2.9h-20.9c-1.7,0-3.2,1.2-3.5,2.9l-15.1,80.2
	c-0.1,0.7,0.3,1.4,1.1,1.6c0.1,0,0.2,0,0.2,0h18.6c0.7,0,1.2-0.5,1.3-1.1l4.5-30.9c0.3-2,2.1-3.3,4.1-3c1.6,0.2,2.8,1.5,3,3
	l7.5,50.9c0.3,1.8,1.8,3.1,3.6,3.1h14.3c2,0,3.6-1.6,3.6-3.6C615.2,112.4,615.1,112.1,615.1,111.9L615.1,111.9z"/>
<path class="st0" d="M571.5,101h-45.7c-7,0-8.2-5.8-8.2-13V37.8c0-6.5,0.7-13.2,8.2-13.2c7.5,0,7.6,6.6,7.6,12.8v7.2
	c0,1.9,1.5,3.4,3.4,3.4l0,0H553c1.9,0,3.4-1.5,3.4-3.4l0,0v-5.8c0-18.2-7.1-30.8-30.7-30.8c-24.4,0-32,13.6-32,35.7v38.5
	c0,21.6,7.6,35.6,32,35.6h41.3c2.3,0,4.2-1.7,4.5-3.9l1.6-10.9c0.1-0.9-0.5-1.8-1.4-1.9C571.7,101,571.6,101,571.5,101L571.5,101z"
	/>
<g>
	<linearGradient id="SVGID_1_" gradientUnits="userSpaceOnUse" x1="31.7057" y1="6.5037" x2="169.4601" y2="144.2581">
		<stop  offset="0" style="stop-color:#00C7FF"/>
		<stop  offset="1" style="stop-color:#005BFF"/>
	</linearGradient>
	<path class="st1" d="M169.4,13.2C151.9,8.4,134,5.6,116,4.5c-0.7-1.6-2.2-3-3.9-3.3c-7.7-1.3-15.5-1.3-23.1,0
		c-1.7,0.3-3.2,1.7-3.9,3.3c-18,1.1-35.8,4-53.3,8.7C14,18,0,38.7,0,56.6c0,17.1,0,34.2,0,51.3c0,8,6.2,11.8,14,9.1
		c56.1-19.6,117.1-19.6,173.2,0c7.8,2.7,14-1.2,14-9.1V56.6C201.2,38.7,187.2,18,169.4,13.2z"/>
	<circle class="st0" cx="65" cy="67.1" r="25.2"/>
	<circle class="st0" cx="136.1" cy="67.1" r="25.2"/>
</g>
</svg>
