<svg id="Camada_1" data-name="Camada 1" xmlns="http://www.w3.org/2000/svg" xmlns:xlink="http://www.w3.org/1999/xlink" viewBox="0 0 711.10411 123.73358"><defs><style>.cls-1{fill:#fff;}.cls-2{fill:url(#Gradiente_sem_nome);}</style><linearGradient id="Gradiente_sem_nome" x1="86.01554" y1="-198.54637" x2="237.27673" y2="-349.80756" gradientTransform="matrix(1, 0, 0, -1, -49.08888, -189.07153)" gradientUnits="userSpaceOnUse"><stop offset="0" stop-color="#00c7ff"/><stop offset="1" stop-color="#0045ff"/></linearGradient></defs><path class="cls-1" d="M385.09007,90.18612V51.7267c0-22.12751,7.63922-35.69349,32.0057-35.69349,23.57584,0,30.68815,12.64416,30.68815,30.8202v5.7918a3.42785,3.42785,0,0,1-3.42786,3.42786H428.16288a3.42786,3.42786,0,0,1-3.42785-3.42786h0V45.40462c0-6.19043-.13208-12.7758-7.63922-12.7758-7.50763,0-8.16617,6.717-8.16617,13.17068V95.98126c0,7.24434,1.18554,13.03946,8.16617,13.03946,7.37554,0,7.63922-6.58574,7.63922-13.03946V88.21413a3.42786,3.42786,0,0,1,3.42785-3.42786h16.19318a3.42786,3.42786,0,0,1,3.42786,3.42786v5.79136c0,18.176-6.849,31.742-30.68815,31.742C392.72932,125.74756,385.09007,111.78622,385.09007,90.18612Z" transform="translate(-3.8338 -5.02362)"/><path class="cls-1" d="M464.0171,17.482h41.29425a3.324,3.324,0,0,1,3.324,3.324h0v9.42059a3.324,3.324,0,0,1-3.324,3.324H487.593a3.324,3.324,0,0,0-3.324,3.324h0v.00005h0v19.8258a3.324,3.324,0,0,0,3.324,3.32406h11.92334a3.324,3.324,0,0,1,3.324,3.324v9.68387a3.324,3.324,0,0,1-3.324,3.324H487.593a3.324,3.324,0,0,0-3.324,3.324h0V104.906a3.324,3.324,0,0,0,3.324,3.324H505.5746a3.324,3.324,0,0,1,3.324,3.324h0v9.28894a3.324,3.324,0,0,1-3.324,3.324H464.0171a3.324,3.324,0,0,1-3.324-3.324h0V20.806a3.324,3.324,0,0,1,3.324-3.324Z" transform="translate(-3.8338 -5.02362)"/><path class="cls-1" d="M651.05851,21.44372a3.96179,3.96179,0,0,1,3.96173-3.96176h31.863c19.09784,0,28.05469,11.19539,28.05469,30.95184,0,24.62973-13.56684,30.4253-30.82019,30.4253h-5.52155a3.96176,3.96176,0,0,0-3.96173,3.96175v37.38449a3.96179,3.96179,0,0,1-3.96173,3.96176H655.0203a3.96179,3.96179,0,0,1-3.96173-3.96176Zm31.47876,40.95137c8.69269,0,10.27313-4.60961,10.27313-14.35622,0-8.03455-.92181-13.96132-10.40515-13.96132h-3.80914a3.96177,3.96177,0,0,0-3.96173,3.96176v20.394a3.96177,3.96177,0,0,0,3.96173,3.96176Z" transform="translate(-3.8338 -5.02362)"/><path class="cls-1" d="M347.02467,51.81182v65.32982a7.02544,7.02544,0,0,0,7.02536,7.02551h9.52539a7.02549,7.02549,0,0,0,7.02554-7.02549h0V51.81182Z" transform="translate(-3.8338 -5.02362)"/><path class="cls-1" d="M363.42713,17.48191H314.31352V17.482h-2.51724a.33474.33474,0,0,0-.33472.33474h0V59.51059a1.90471,1.90471,0,0,1-3.65723.74594L290.091,18.64076a1.90473,1.90473,0,0,0-1.75253-1.15875H274.90681a1.90466,1.90466,0,0,0-1.90472,1.90459v102.876a1.90463,1.90463,0,0,0,1.90463,1.90463h16.34247a1.9047,1.9047,0,0,0,1.90472-1.90463V78.8498a1.90465,1.90465,0,0,1,3.676-.70011l17.71167,44.81285a1.90466,1.90466,0,0,0,1.77136,1.20456H329.05a1.90462,1.90462,0,0,0,1.90466-1.90462V41.0582h32.47244a7.02546,7.02546,0,0,0,7.02555-7.0254h0V24.50744a7.0255,7.0255,0,0,0-7.02545-7.02553h-.0001Z" transform="translate(-3.8338 -5.02362)"/><path class="cls-1" d="M576.00328,110.10177l-1.85309,9.81011a3.589,3.589,0,0,0,3.52667,4.25522h14.82751a3.589,3.589,0,0,0,3.55109-3.06889l1.54627-10.55767a1.32745,1.32745,0,0,0-1.31342-1.51982H577.3076A1.32754,1.32754,0,0,0,576.00328,110.10177Z" transform="translate(-3.8338 -5.02362)"/><path class="cls-1" d="M639.46373,119.92038,620.91337,20.4132a3.589,3.589,0,0,0-3.5282-2.93121H596.47276a3.5889,3.5889,0,0,0-3.52661,2.92284L577.7985,100.59748a1.32759,1.32759,0,0,0,1.30439,1.57382h18.57745a1.32744,1.32744,0,0,0,1.31341-1.1351l4.51954-30.85887a3.589,3.589,0,0,1,7.10223,0l7.45831,50.921a3.589,3.589,0,0,0,3.55109,3.06889h14.31061a3.58905,3.58905,0,0,0,3.5282-4.24682Z" transform="translate(-3.8338 -5.02362)"/><path class="cls-1" d="M595.85874,109.02067h-45.733c-6.98065,0-8.1662-5.79513-8.1662-13.03948V45.79944c0-6.45372.65863-13.17067,8.1662-13.17067,7.5072,0,7.63922,6.58534,7.63922,12.77578v7.24056a3.42787,3.42787,0,0,0,3.42786,3.42789H577.386a3.42789,3.42789,0,0,0,3.42785-3.42786h0V46.85333c0-18.176-7.11236-30.8202-30.68811-30.8202-24.36645,0-32.00567,13.566-32.00567,35.69349V90.18607c0,21.6001,7.63922,35.56144,32.00567,35.56144H591.473a4.53367,4.53367,0,0,0,4.486-3.87838l1.59082-10.89228a1.70894,1.70894,0,0,0-1.69117-1.95617Z" transform="translate(-3.8338 -5.02362)"/><path class="cls-2" d="M221.35632,54.45559c-1.37247-23.49026-29.67124-42.38515-64.95834-43.42867v-.04764H125.9293v-.96915a4.98651,4.98651,0,0,0-4.98648-4.98651h-16.6379a4.98654,4.98654,0,0,0-4.98653,4.98651v.96915H68.84974v.04764C33.56263,12.07042,5.26384,30.96535,3.8914,54.45559H3.8338v70.63414a7.342,7.342,0,0,0,.98082,3.66747c16.82413-12.9832,58.97426-22.18956,108.31743-22.18956,48.64338,0,90.29416,8.94746,107.58436,21.63983a7.34348,7.34348,0,0,0,.69749-3.11768V54.45559Z" transform="translate(-3.8338 -5.02362)"/><circle class="cls-1" cx="69.74202" cy="66.52423" r="26.01085"/><circle class="cls-1" cx="147.8381" cy="66.52423" r="26.01084"/></svg>