<svg id="Camada_1" data-name="Camada 1" xmlns="http://www.w3.org/2000/svg" viewBox="0 0 53.14 43.33571"><defs><style>.cls-1{fill:#fff;}</style></defs><g id="Layer_2" data-name="Layer 2"><g id="Icons"><g id="Development"><circle class="cls-1" cx="4.33" cy="4" r="1"/><circle class="cls-1" cx="11" cy="4" r="1"/><circle class="cls-1" cx="7.67" cy="4" r="1"/><path class="cls-1" d="M20,30.25l3-3a1.00409,1.00409,0,0,0-1.42-1.42l-3.72,3.73a1,1,0,0,0,0,1.41l3.72,3.73a1,1,0,0,0,1.4142.0058L23,34.7a1,1,0,0,0,0-1.41Z" transform="translate(-5 -11.74)"/><path class="cls-1" d="M34.32,34.68a1,1,0,0,0,1.41,0L39.46,31a1,1,0,0,0,0-1.41l-3.73-3.73a1.00056,1.00056,0,0,0-1.41,1.42l3,3-3,3A1,1,0,0,0,34.32,34.68Z" transform="translate(-5 -11.74)"/><path class="cls-1" d="M31,26.15a1,1,0,0,0-1.36656.364L29.63,26.52,25.94,33a1,1,0,0,0,1.68783,1.073q.02261-.03558.04217-.073l3.73-6.45a1,1,0,0,0-.34753-1.37085h0Q31.02669,26.16379,31,26.15Z" transform="translate(-5 -11.74)"/><path class="cls-1" d="M55.86,40a.29.29,0,0,1-.27-.19,10.42988,10.42988,0,0,0-1.67-2.89.29.29,0,0,1,0-.33,2.3,2.3,0,0,0-.84-3.14L52.33,33V14.74a3,3,0,0,0-3-3H8a3,3,0,0,0-3,3V40.08a2.34,2.34,0,0,0,2.33,2.33H21l-1,3.7H18.67a4.33,4.33,0,0,0-4.21,3.33H12a1,1,0,0,0,0,2H37.47a2.12018,2.12018,0,0,0,.07.71,2.25,2.25,0,0,0,1.07,1.4l2.11,1.22a2.3,2.3,0,0,0,3.13978-.84959v0L43.86,53.92a.31.31,0,0,1,.31-.14,9.74,9.74,0,0,0,3.32,0,.3.3,0,0,1,.31.15,2.3,2.3,0,0,0,2,1.14,2.27009,2.27009,0,0,0,1.15-.3l2.11-1.22a2.29,2.29,0,0,0,1.07-1.4,2.26,2.26,0,0,0-.23-1.74.3.3,0,0,1,0-.34,10.52,10.52,0,0,0,1.67-2.88.28.28,0,0,1,.27-.19,2.31,2.31,0,0,0,2.3-2.3V42.26A2.3,2.3,0,0,0,55.86,40ZM7,14.74a1,1,0,0,1,1-1H49.33a1,1,0,0,1,1,1v3H7Zm.33,25.67A.33.33,0,0,1,7,40.08V19.74H50.33V32a2.29,2.29,0,0,0-2.53,1h0a.29.29,0,0,1-.3.13,10.27,10.27,0,0,0-3.32,0,.28.28,0,0,1-.3-.13h0a2.29,2.29,0,0,0-3.12543-.84841L40.74,32.16l-2.11,1.22a2.24,2.24,0,0,0-1.07,1.39,2.32,2.32,0,0,0,.22,1.75.27.27,0,0,1,0,.33,10.43027,10.43027,0,0,0-1.67,2.89.29.29,0,0,1-.27.19,2.29,2.29,0,0,0-1.36.45ZM34,46.11H22l1-3.7H33.5V44.7A2.32,2.32,0,0,0,34,46.11Zm-15.32,2h17.8a10.99959,10.99959,0,0,0,.78,1.33H16.57a2.33,2.33,0,0,1,2.1-1.33ZM56.16,44.7a.3.3,0,0,1-.3.3,2.31,2.31,0,0,0-2.15,1.48,8.46019,8.46019,0,0,1-1.34,2.33,2.31,2.31,0,0,0-.21,2.6.26.26,0,0,1,0,.22.29.29,0,0,1-.14.19L49.94,53a.3.3,0,0,1-.408-.11634L49.53,52.88a2.31,2.31,0,0,0-2.37-1.11,7.92011,7.92011,0,0,1-2.66,0,2.31,2.31,0,0,0-2.37,1.12.31.31,0,0,1-.41.11l-2.11-1.22a.29.29,0,0,1-.14-.19.26.26,0,0,1,0-.22,2.33,2.33,0,0,0-.21-2.6,8.35,8.35,0,0,1-1.35-2.33A2.28,2.28,0,0,0,35.8,45a.3.3,0,0,1-.3-.3V42.26a.29.29,0,0,1,.27964-.3q.01019-.00036.02036,0a2.3,2.3,0,0,0,2.14-1.48,8.20967,8.20967,0,0,1,1.35-2.33,2.33,2.33,0,0,0,.21-2.6.28.28,0,0,1,0-.23.26.26,0,0,1,.14-.18l2.11-1.22a.28.28,0,0,1,.15,0,.3.3,0,0,1,.25.14h0a2.32,2.32,0,0,0,2.37,1.12,7.92011,7.92011,0,0,1,2.66,0A2.33,2.33,0,0,0,49.53,34h0a.29.29,0,0,1,.39734-.1016h0L49.93,33.9l2.11,1.22a.26.26,0,0,1,.14.18.28.28,0,0,1,0,.23,2.3,2.3,0,0,0,.21,2.59,8.5103,8.5103,0,0,1,1.34,2.34A2.32,2.32,0,0,0,55.86,42a.29.29,0,0,1,.3.27964q.00036.01019,0,.02036Z" transform="translate(-5 -11.74)"/><path class="cls-1" d="M45.83,38.94a4.54,4.54,0,1,0,4.54,4.54,4.54,4.54,0,0,0-4.54-4.54Zm0,7.08a2.53,2.53,0,1,0,0-.02Z" transform="translate(-5 -11.74)"/></g></g></g></svg>