<svg id="Capa_1" data-name="Capa 1" xmlns="http://www.w3.org/2000/svg" viewBox="0 0 411.2 480"><defs><style>.cls-1{fill:#fff;}</style></defs><path class="cls-1" d="M155.2,241.7A120.85,120.85,0,1,0,34.4,120.8,120.82049,120.82049,0,0,0,155.2,241.7ZM113,168.6c1.1-4,2.2-7.9,3.4-11.9,1.4-4.6,2.7-5.1,6.9-2.9a67.53513,67.53513,0,0,0,22.8,6.8,28.11519,28.11519,0,0,0,14.9-2c8.9-3.9,10.3-14.2,2.8-20.4a36.49328,36.49328,0,0,0-8.5-5c-7.8-3.4-15.9-6-23.3-10.4-11.9-7.1-19.5-17-18.6-31.5,1-16.4,10.3-26.7,25.3-32.1,6.2-2.3,6.2-2.2,6.3-8.7V43.9c.1-4.9,1-5.7,5.8-5.9h4.5c10.4,0,10.4,0,10.4,10.4,0,7.3,0,7.4,7.3,8.5a64.89408,64.89408,0,0,1,16.1,4.8C192,63,193,65,192.2,68c-1.3,4.5-2.5,9-4,13.4-1.4,4.2-2.7,4.8-6.7,2.9a51.41461,51.41461,0,0,0-25.6-5.1,17.60153,17.60153,0,0,0-6.8,1.4c-7.7,3.4-9,11.9-2.4,17.2a41.63793,41.63793,0,0,0,11.1,6.2,204.25562,204.25562,0,0,1,20.3,9.2c20.7,11.5,26.3,37.5,11.7,55.2a38.88755,38.88755,0,0,1-20.2,12.9c-3.5,1-5.1,2.8-4.9,6.4s0,7.1,0,10.7c0,3.2-1.6,4.9-4.8,5-3.8.1-7.7.1-11.5,0-3.4-.1-5-2-5-5.3,0-2.6,0-5.2-.1-7.8-.1-5.7-.2-6-5.8-6.9-7.1-1.1-14-2.7-20.5-5.9C112.1,175.2,111.6,173.9,113,168.6Z" transform="translate(-34.4 0)"/><path class="cls-1" d="M426.2,251.8H412.1c-9.3-28.5-27.5-53.8-51.8-73.4a13.50593,13.50593,0,0,0-.4-2.8c-5.1-17.9,1.2-34.2,8.5-45.9a11.47594,11.47594,0,0,0-11.1-17.5c-21.5,2.7-36.3,10.6-46.5,19.5a45.18451,45.18451,0,0,0-14.2,23.4c-15.4,63.8-72.9,111.3-141.4,111.3a144.625,144.625,0,0,1-88.4-30,141.29723,141.29723,0,0,0-9.1,92.8h0a1.7501,1.7501,0,0,0,.1.5,144.33907,144.33907,0,0,0,12,31.9c6.9,14.9,16.9,32.3,30.7,46.4,19.9,20.5,23.3,45.9,23.8,56.9v5.4h0a10.46925,10.46925,0,0,0,10.4,9.7h63.2a10.39193,10.39193,0,0,0,10.4-10.4V454a217.39029,217.39029,0,0,0,28.1,1.9,201.80812,201.80812,0,0,0,22.1-1.2v14.9A10.39193,10.39193,0,0,0,268.9,480h63.4a10.39193,10.39193,0,0,0,10.4-10.4V454c.1-5.2,1.9-25.9,21.5-43.6q1.05-.9,2.1-1.8c.2-.2.4-.3.6-.5h0c21.8-19.4,37.9-43.6,46.2-70.6h13.3a19.205,19.205,0,0,0,19.2-19.2V271A19.50736,19.50736,0,0,0,426.2,251.8Zm-79.1,3.4a15.7,15.7,0,1,1,15.7-15.7A15.66286,15.66286,0,0,1,347.1,255.2Z" transform="translate(-34.4 0)"/></svg>