<svg id="Layer_2" data-name="Layer 2" xmlns="http://www.w3.org/2000/svg" xmlns:xlink="http://www.w3.org/1999/xlink" viewBox="0 0 515.3684 521.6898"><defs><style>.cls-1{fill:url(#White_Black);}.cls-2{fill:url(#White_Black-2);}.cls-3{fill:url(#White_Black-3);}.cls-4{mask:url(#mask);}.cls-5{mask:url(#mask-2);}.cls-6{mask:url(#mask-3);}.cls-7{fill:#fff;}</style><linearGradient id="White_Black" x1="-2974.4391" y1="314.97593" x2="-3125.179" y2="213.70467" gradientTransform="translate(927.83912 -132.51552) rotate(-179.99811)" gradientUnits="userSpaceOnUse"><stop offset="0" stop-color="#fff"/><stop offset="1" stop-color="#231f20"/></linearGradient><linearGradient id="White_Black-2" x1="4912.01151" y1="686.83059" x2="4426.18797" y2="360.44082" gradientTransform="translate(-1872.6445 -4487.17143) rotate(90.0019)" xlink:href="#White_Black"/><linearGradient id="White_Black-3" x1="5203.35405" y1="1408.49146" x2="4717.5305" y2="1082.10169" gradientTransform="translate(-7117.17068 -1678.51363)" xlink:href="#White_Black"/><mask id="mask" x="3708.0733" y="-552.2462" width="168.1953" height="109.0137" maskUnits="userSpaceOnUse"><g transform="translate(-242.3158 -139.1551)"><rect class="cls-1" x="3955.3621" y="-403.63222" width="158.2498" height="90.09594" transform="translate(75.54321 497.23821) rotate(-7.11909)"/></g></mask><mask id="mask-2" x="-2691.3988" y="-411.3669" width="351.3431" height="542.081" maskUnits="userSpaceOnUse"><g transform="translate(-242.3158 -139.1551)"><rect class="cls-2" x="-2418.59773" y="-256.18579" width="290.37255" height="510.02743" transform="translate(-17.38117 -281.75786) rotate(-7.11909)"/></g></mask><mask id="mask-3" x="-2853.2066" y="-870.8992" width="542.081" height="351.3431" maskUnits="userSpaceOnUse"><g transform="translate(-242.3158 -139.1551)"><rect class="cls-3" x="-2594.86484" y="-701.25883" width="510.02743" height="290.37255" transform="translate(50.87664 -294.26972) rotate(-7.11909)"/></g></mask></defs><path class="cls-7" d="M756.8929,596.1091c1.0063-.2703.642-.183.7913-.2296C756.0069,596.3516,756.9327,596.09,756.8929,596.1091Z" transform="translate(-242.3158 -139.1551)"/><polygon class="cls-7" points="497.796 460.74 498.085 460.638 495.627 461.268 497.796 460.74"/><path class="cls-7" d="M724.3649,603.2004c1.5544-.0214,5.6951-1.244,8.5231-1.7341l.474-.0467,1.2257-.4406C731.179,601.6995,726.7853,602.7823,724.3649,603.2004Z" transform="translate(-242.3158 -139.1551)"/><path class="cls-7" d="M715.7907,604.1625c.5513.0407-1.7962.4688,1.9749-.3319-.1933.0179-.2502.0233-.3636.0338C717.0606,603.9276,716.5908,604.0145,715.7907,604.1625Z" transform="translate(-242.3158 -139.1551)"/><path class="cls-7" d="M717.402,603.8644c1.6631-.3256-1.1146.0932,0,0Z" transform="translate(-242.3158 -139.1551)"/><path class="cls-7" d="M709.7327,605.4148l2.1628-.5529c-.4779-.0021-2.4363.3397-1.7254.1381C707.9346,605.4924,708.4202,605.5068,709.7327,605.4148Z" transform="translate(-242.3158 -139.1551)"/><path class="cls-7" d="M707.721,606.1167l1.1218-.2832A3.06038,3.06038,0,0,0,707.721,606.1167Z" transform="translate(-242.3158 -139.1551)"/><path class="cls-7" d="M711.2234,605.2418l-2.3806.5917a1.36051,1.36051,0,0,0,1.0954-.2607C709.7677,605.7306,710.2181,605.5216,711.2234,605.2418Z" transform="translate(-242.3158 -139.1551)"/><path class="cls-7" d="M712.6003,605.0371c1.2484-.1537,2.8453-.4216.6767.145C717.4518,604.2881,716.7817,604.1741,712.6003,605.0371Z" transform="translate(-242.3158 -139.1551)"/><path class="cls-7" d="M723.6303,603.6781l1.6553-.2671,1.3935-.4028C725.9841,603.2136,723.5074,603.6059,723.6303,603.6781Z" transform="translate(-242.3158 -139.1551)"/><path class="cls-7" d="M696.0184,607.7752c-.1136.132.7992.1413.992.2423l1.593-.4305A12.27464,12.27464,0,0,1,696.0184,607.7752Z" transform="translate(-242.3158 -139.1551)"/><path class="cls-7" d="M697.0104,608.0175l-2.3816.6538C696.7956,608.2684,697.1724,608.1057,697.0104,608.0175Z" transform="translate(-242.3158 -139.1551)"/><polygon class="cls-7" points="465.118 467.506 469.021 466.392 464.354 467.667 465.118 467.506"/><polygon class="cls-7" points="444.44 470.349 445.755 469.82 443.397 470.694 444.44 470.349"/><path class="cls-7" d="M680.6245,610.7132c.9654-.43-1.4847-.1527-.4411-.5008a32.29371,32.29371,0,0,0-4.2805,1.2627A25.19169,25.19169,0,0,1,680.6245,610.7132Z" transform="translate(-242.3158 -139.1551)"/><path class="cls-7" d="M673.812,612.1718c.6671-.1921,1.3482-.4365,2.0909-.6967A17.8318,17.8318,0,0,0,673.812,612.1718Z" transform="translate(-242.3158 -139.1551)"/><path class="cls-7" d="M690.4927,609.4235a5.52534,5.52534,0,0,0-1.9774.0424l1.0232.1393C689.8294,609.5499,690.1588,609.4872,690.4927,609.4235Z" transform="translate(-242.3158 -139.1551)"/><path class="cls-7" d="M689.5741,609.609l-.0356-.0038c-1.0352.1937-1.7532.3281-2.061.3857C687.7423,609.9426,688.3732,609.8277,689.5741,609.609Z" transform="translate(-242.3158 -139.1551)"/><path class="cls-7" d="M690.7332,609.378l-.2405.0455A.28507.28507,0,0,0,690.7332,609.378Z" transform="translate(-242.3158 -139.1551)"/><path class="cls-7" d="M701.0444,607.7102c-1.3877.4369-4.3083,1.223-1.3912.8755C700.629,608.1828,698.9584,608.3782,701.0444,607.7102Z" transform="translate(-242.3158 -139.1551)"/><path class="cls-7" d="M692.0015,609.5392l2.5843-.4455c-.0681-.0695-.5573-.0953.1284-.3189Z" transform="translate(-242.3158 -139.1551)"/><polygon class="cls-7" points="448.45 470.737 449.686 470.384 448.727 470.548 448.45 470.737"/><path class="cls-7" d="M678.2951,611.6701a31.87481,31.87481,0,0,1-3.655.9237c1.4868-.2148,3.0157-.4766,4.4592-.7626C679.2785,611.6768,679.8691,611.3511,678.2951,611.6701Z" transform="translate(-242.3158 -139.1551)"/><path class="cls-7" d="M683.7846,610.7066l-.2425.0682C683.7002,610.7741,683.824,610.7595,683.7846,610.7066Z" transform="translate(-242.3158 -139.1551)"/><path class="cls-7" d="M661.1304,615.2502l.2333.0342a.6697.6697,0,0,1,.035-.0827Z" transform="translate(-242.3158 -139.1551)"/><path class="cls-7" d="M679.3609,611.8496a9.4968,9.4968,0,0,0,2.3678-.5997c-.819.1976-1.69.3921-2.6294.5813C679.019,611.9005,679.0093,611.9378,679.3609,611.8496Z" transform="translate(-242.3158 -139.1551)"/><path class="cls-7" d="M670.0789,613.0762c.5939-.0289,1.262-.0866,1.9619-.1571A6.85724,6.85724,0,0,0,670.0789,613.0762Z" transform="translate(-242.3158 -139.1551)"/><path class="cls-7" d="M683.1484,610.7516l.1622-.0474C682.9318,610.6998,682.9848,610.7275,683.1484,610.7516Z" transform="translate(-242.3158 -139.1551)"/><path class="cls-7" d="M683.1484,610.7516c-.5585.16-.9871.3332-1.4197.4983.667-.1594,1.2834-.3185,1.8134-.4751A2.63808,2.63808,0,0,1,683.1484,610.7516Z" transform="translate(-242.3158 -139.1551)"/><path class="cls-7" d="M657.6405,618.8535c.1058-.4521,2.9252-1.4304,5.5153-1.5482,2.3972-.8205.52-1.7184-1.7921-2.0209-.0393.1868-.0062.3405-2.4942,1.0856.9368.0446,5.7381-.6447,3.6739.1457-3.314.9019-2.781.4348-4.4604.5577,1.4947.2072-4.1134,1.6254-3.2186,2.2319l2.8833-.8978C657.8275,618.51,656.8013,618.9257,657.6405,618.8535Z" transform="translate(-242.3158 -139.1551)"/><path class="cls-7" d="M666.2124,614.3673l1.035-.2535a24.514,24.514,0,0,1-3.7271.1945c-1.7004.5227-2.03.7402-2.1216.8934l5.159-.9613Z" transform="translate(-242.3158 -139.1551)"/><path class="cls-7" d="M671.9401,613.185c-.7325.5482-3.2027,1.2301-1.574,1.3462,3.0562-.6587,2.0749-.7685,3.8699-1.3049-4.926,1.0904,1.3753-.4969-2.248-.0041.9587-.2582,1.8296-.4501,2.6521-.6284-.9017.1292-1.774.2395-2.5993.3253l.1187.0021.023-.0058-.0035.0071c.224.0068.3009.0224.0539.0414a.85594.85594,0,0,1-.1016.0281.54907.54907,0,0,1-.1916.1909c-1.4514.2014-.2477-.0575.1916-.1909.0125-.0222.0475-.0479.0477-.0695l-.0195-.0013-4.9121,1.1926C668.3088,613.9619,669.6197,613.6882,671.9401,613.185Z" transform="translate(-242.3158 -139.1551)"/><path class="cls-7" d="M697.1539,609.7743c-.159.007-.1567-.0157-.1732-.0347C696.6695,609.8451,696.5537,609.8967,697.1539,609.7743Z" transform="translate(-242.3158 -139.1551)"/><path class="cls-7" d="M695.0815,610.0316a7.66958,7.66958,0,0,1,1.7981-.5222c1.0329-.1272.0264.1431.1011.2302.6858-.2332,2.4179-.7374.1778-.4125l-.3409.1145a20.67084,20.67084,0,0,1-4.3194.3464A8.7881,8.7881,0,0,0,695.0815,610.0316Z" transform="translate(-242.3158 -139.1551)"/><path class="cls-7" d="M683.4088,611.8262l-4.0838,1.0265,2.1658-.1266-.1467-.1634C683.7027,612.1452,683.1477,612.0261,683.4088,611.8262Z" transform="translate(-242.3158 -139.1551)"/><polygon class="cls-7" points="418.296 475.975 418.747 475.418 416.498 476.521 418.296 475.975"/><polygon class="cls-7" points="412.94 477.078 413.05 476.63 411.686 477.153 412.94 477.078"/><path class="cls-7" d="M511.6468,613.2225s.4645,1.346.4354,1.3502A6.73157,6.73157,0,0,0,511.6468,613.2225Z" transform="translate(-242.3158 -139.1551)"/><path class="cls-7" d="M508.4939,603.4914l-.4328-.0612C508.4465,603.7664,508.6649,603.8812,508.4939,603.4914Z" transform="translate(-242.3158 -139.1551)"/><path class="cls-7" d="M523.4987,639.0559c-1.8249-.5243-3.8616-1.4005-3.5966-.6392l.5951.7194A9.57893,9.57893,0,0,1,523.4987,639.0559Z" transform="translate(-242.3158 -139.1551)"/><path class="cls-7" d="M446.3733,615.6325c-.1222.1527-.2238.3188-.3342.4845.2187.4897.4032.9272.617,1.3079C446.5453,616.9002,446.4476,616.2885,446.3733,615.6325Z" transform="translate(-242.3158 -139.1551)"/><path class="cls-7" d="M443.3741,613.5092s.3298-.6296.6596-1.259c.1571-.3147.3518-.6063.4885-.8283.1387-.2201.231-.3668.231-.3668a8.60582,8.60582,0,0,0-.6547.9658C443.8791,612.4301,443.6361,612.9204,443.3741,613.5092Z" transform="translate(-242.3158 -139.1551)"/><path class="cls-7" d="M486.7074,657.5396l-1.2919,1.1973C487.8162,658.0039,486.6349,657.9558,486.7074,657.5396Z" transform="translate(-242.3158 -139.1551)"/><path class="cls-7" d="M600.3402,627.2836a31.1315,31.1315,0,0,0-3.8815.3916C598.3704,627.6614,599.9611,627.8794,600.3402,627.2836Z" transform="translate(-242.3158 -139.1551)"/><path class="cls-7" d="M502.5509,611.742c.3171.5909.5553.8246.7231.7608C502.9523,611.8748,502.7023,611.5505,502.5509,611.742Z" transform="translate(-242.3158 -139.1551)"/><path class="cls-7" d="M592.055,628.5488c.2817.0087.5522-.0124.8367-.0146a28.63125,28.63125,0,0,1,3.567-.859A9.68648,9.68648,0,0,0,592.055,628.5488Z" transform="translate(-242.3158 -139.1551)"/><path class="cls-7" d="M312.6477,627.8764c-.1285.0026-.2815.0059-.399.0083C312.2172,627.932,312.3924,627.914,312.6477,627.8764Z" transform="translate(-242.3158 -139.1551)"/><path class="cls-7" d="M263.8063,643.0476c.436-.265,1.1398-.711,1.8212-1.1007C265.2908,642.1276,264.7436,642.4645,263.8063,643.0476Z" transform="translate(-242.3158 -139.1551)"/><path class="cls-7" d="M633.6118,620.2463c1.1317-.2548.1685-.0918,0,0Z" transform="translate(-242.3158 -139.1551)"/><path class="cls-7" d="M639.5714,621.1361c-.2296.1059-.3979.2152-.402.3363A.78175.78175,0,0,1,639.5714,621.1361Z" transform="translate(-242.3158 -139.1551)"/><path class="cls-7" d="M581.5635,634.776l-.0988.018C581.8285,634.8502,581.7656,634.8381,581.5635,634.776Z" transform="translate(-242.3158 -139.1551)"/><path class="cls-7" d="M635.3747,620.1444c-.4407.0211-.9443.0651-1.4884.1327C634.13,620.271,634.5831,620.2343,635.3747,620.1444Z" transform="translate(-242.3158 -139.1551)"/><path class="cls-7" d="M635.0928,619.9487c.3969-.057.7086-.1017,1.0058-.1444C636.224,619.692,636.0854,619.6634,635.0928,619.9487Z" transform="translate(-242.3158 -139.1551)"/><path class="cls-7" d="M632.0317,620.5847c.6494-.1355,1.2618-.2308,1.8546-.3076-.2313.009-.331-.0019-.2745-.0308C633.2792,620.3175,632.8098,620.418,632.0317,620.5847Z" transform="translate(-242.3158 -139.1551)"/><path class="cls-7" d="M404.1403,644.6677c-.0671-.0422-.1477-.0816-.2194-.1325C402.7287,644.414,403.2305,644.5348,404.1403,644.6677Z" transform="translate(-242.3158 -139.1551)"/><path class="cls-7" d="M493.4877,647.6264c.056-.0049.0861-.0238.1372-.0305l-.1736-.0371Z" transform="translate(-242.3158 -139.1551)"/><path class="cls-7" d="M489.1868,647.9559a5.83685,5.83685,0,0,1,4.2645-.3971l-1.2706-2.341s-.742.6893-1.484,1.3784C489.9496,647.2937,489.1868,647.9559,489.1868,647.9559Z" transform="translate(-242.3158 -139.1551)"/><path class="cls-7" d="M508.9647,636.7775s.5047-.6793.9796-1.3859c.4437-.7239.8876-1.448.8876-1.448a21.10086,21.10086,0,0,1-.879,4.6632c-.2097.8517-.0511.8886,1.0695-.4007-.5177-.3682-.4252-1.3076-.1192-2.5459.2472-1.2581.8188-2.7965,1.1709-4.3961a21.47446,21.47446,0,0,0,.7311-4.4541c.0074-1.2633-.2395-2.1611-.8381-2.3344,0,0,.1924-.5239.3845-1.0478.158-.5343.3159-1.0685.3159-1.0685-.0616.6214.1081.7344.0139,1.3472.7253-2.0831.3208-2.9282-.25-3.8517a8.104,8.104,0,0,1-1.3437-4.6135,19.97226,19.97226,0,0,1,.0564-2.1633c.075-.4244.2359-.4683.5027.1445,0,0-.3386-1.0199-.7121-2.0146-.4307-.9777-.8617-1.9555-.8617-1.9555-.2867-1.1914.2092-1.0467.4992.1593,0,0-.1212-.3872-.3034-.9679-.2305-.5679-.5378-1.3253-.8452-2.0826a20.13155,20.13155,0,0,0-.9755-2.0308c-.2845-.5457-.4743-.9094-.4743-.9094l.0873.0092c-.3562-.3412-1.0019-.8628-1.5921-1.3987-.5985-.5342-1.1697-1.073-1.6013-1.386-.686-1.5188.7103.4981.72-.0138,0,0-.6631-.6261-1.3264-1.2523a11.29583,11.29583,0,0,0-1.3822-1.1595c-.2513-.7502.2347-.708,1.0154-.2051a10.1926,10.1926,0,0,1,2.409,2.622,4.23125,4.23125,0,0,0-.4323-2.2546,3.549,3.549,0,0,0-1.2477-1.2502,15.58471,15.58471,0,0,1-2.0001-1.574,16.19251,16.19251,0,0,1-1.4093-1.2695c-.2583-.2581-.5267-.5463-.816-.8581-.3102-.2846-.6374-.5986-.986-.9463l.4983.2771a9.64543,9.64543,0,0,1,1.0732.6512c.7473.5314,1.4944,1.0629,1.4944,1.0629a6.26565,6.26565,0,0,0-.9574-1.8244,9.65143,9.65143,0,0,0-1.5995-1.5591,18.38771,18.38771,0,0,0-2.0719-1.5491c-.7797-.4973-1.5872-1.1484-2.5111-1.7459.0958.1044.2837.2519.5163.4632l.8059.7797a20.41183,20.41183,0,0,1,1.7307,1.8547c.9093,1.3093,1.148,2.205-.7024,1.3501a8.01938,8.01938,0,0,0-1.7118-1.0879,6.86084,6.86084,0,0,0-2.6958-.7876c.1567-.4257-.2856-.7795-1.0903-1.1348a23.33786,23.33786,0,0,0-3.2791-.8527l.4363-1.132a5.93827,5.93827,0,0,0-1.7136-.0197,4.72125,4.72125,0,0,0-1.0119.2284,9.56281,9.56281,0,0,1-1.7818.582c-3.0514-.2545-3.7145-1.242-4.472-1.9667-2.5403.0297-1.6326.3625-.8683.7503.7681.392,1.3787.8353-1.4896,1.1027a13.63687,13.63687,0,0,0-2.8372.1515,16.75887,16.75887,0,0,0-2.6329.5278,30.83656,30.83656,0,0,0-5.6655,2.3768c-2.7632.5604.212-.8655-.8466-.8496,0,0-.5041.4409-1.0082.8819-.4818.4617-.9637.9234-.9637.9234-.5659.2117-.5057-.1354-.4721-.3118-.8948.5765-.7906.8998-.8422,1.2412-.0387.3654-.2447.7245-1.5762,1.6231-.0696.7914-1.7212,1.0985-3.6836,1.8505-1.9552.7221-4.2442,1.952-5.2093,3.9042-.9614.4468-.1571-.8767-.6927-1.0061-.8723,1.1673-1.4557,2.0142-1.8837,2.7057a17.88446,17.88446,0,0,0-.9787,1.6871,12.39746,12.39746,0,0,0-.7106,1.6189,24.21037,24.21037,0,0,0-.8075,2.5926s-.1611.188-.4027.4703c-.2354.2881-.5821.6548-.8716,1.0675-.3006.4112-.6013.8222-.8269,1.1305-.2072.3259-.3456.5431-.3456.5431.4736-.6175.8351-.7928,1.0593-.7037.2296.0924.315.4472.3808.9823.0962,1.0563.0175,2.7658.18,4.2988.3134-.4005.6043-.7721.861-1.1001.2752-.3114.5061-.5744.6672-.7899,0,0-.043.2778-.1076.6946-.0664.4144-.0829.9773-.1324,1.5237-.006.5533-.0016,1.0993.01,1.504.0382.4039.0634.6732.0634.6732-.2284.5015-.6182.0809-1.0788-.7131.0817.3199.1634.6179.2414.847-.2745.7909-.4992,1.0076-.8352.8527a2.73524,2.73524,0,0,1-.958-1.3452,11.77786,11.77786,0,0,1,.9348-1.6624c-.536-1.2703-.9959-2.6559-1.7439-2.5879a9.19433,9.19433,0,0,1-.0771,1.7629c-.1226-.3684-.2478-.624-.4013-.4919-.175.1478-.0241.7641.1747,1.6661,0,0-.3791.2539-.7491.5323l-.7094.5824.5164.3414a18.009,18.009,0,0,0-.2569,3.7063,11.801,11.801,0,0,0,.0925,1.3882c.053.4419.0727.8667.1535,1.214.1393.7061.2321,1.1769.2321,1.1769a19.46852,19.46852,0,0,0,5.7307,5.5107,78.77858,78.77858,0,0,0,7.8105,4.3773c-2.0082-.0765-1.1841,1.15-1.8675,2.0912a4.27089,4.27089,0,0,0-1.281-1.3832c-.5754-.3939-1.25-.8042-1.9921-1.2492a22.47672,22.47672,0,0,1-2.3118-1.5475,10.73592,10.73592,0,0,1-2.0786-2.221c.6066.9091.7765,1.3189.699,1.4991-.0773.1806-.3937.1124-.6583-.0345,0,0,.3722.3024.9302.756a25.15083,25.15083,0,0,0,2.092,1.5025c.7737.5025,1.5752.9274,2.1561,1.2687.6022.2928,1.0035.4882,1.0035.4882-.3383.3426-.1314.7041.3319,1.1563.4678.4411,1.2045.913,1.9036,1.5683-.0671-.5901.2243-.7675.7321-.7265a7.23363,7.23363,0,0,1,2.0698.6368c.8253.326,1.7689.6987,2.6666,1.0533a17.51887,17.51887,0,0,0,2.4554.6979c-.0308.322-.253.5797-.8559.573a7.462,7.462,0,0,1-3.1186-1.0215,3.923,3.923,0,0,0,2.1001,1.1903,6.06979,6.06979,0,0,0,1.9975.0357,5.22463,5.22463,0,0,1,4.1047.7314c-.7747-.2146-1.1586-.4295-1.56-.2183,1.9509.0656,6.2476,1.5914,5.089,1.8514l-.7825-.1853a49.66475,49.66475,0,0,0,10.0091,1.8108c3.4573.2709,6.3624.0825,6.8165-.6611a6.59142,6.59142,0,0,1-1.207,2.0883s.6156-.2758,1.5391-.6893c.9193-.4222,2.1316-.9434,3.3288-1.5386,1.1845-.5789,2.369-1.1579,3.2575-1.592.8763-.4523,1.4604-.7539,1.4604-.7539-.8778,1.2857,2.1656,4.5416-2.2165,5.1229a14.157,14.157,0,0,0,5.4357.1119c-.8531-.1958-2.0652-1.9605-.9075-2.0406,3.14,1.5082,2.1776.8285,6.101,2.064-1.2727-.2603.137-2.3286,2.1233-2.2875-.3081.3096.1953,2.0104-.5377,2.2344,0,0,1.2412-.5196,2.4825-1.0391l2.4576-1.0837c-1.2268.4016-.1705,1.6963.9714,2.2139-.2668-.1885.8154-.2083,2.1272-.2424a30.64129,30.64129,0,0,0,3.5135-.2114l-2.1369-.3353a9.06776,9.06776,0,0,0,5.4928-1.6086,10.33439,10.33439,0,0,1,5.3914-1.8247c-.6297.4578-1.4495,2.6165,1.3968,2.5937,1.2199-1.1094,5.2519-5.2792,9.9747-6.5628l.9929.442,3.6267-1.066a60.94384,60.94384,0,0,1-5.351,3.6287,70.376,70.376,0,0,1-6.3968,3.5269c2.1348.2092.6487.5955,3.7781.1895,1.165.3951-1.6255.9886-2.5478,1.1266,0,0,1.8379-.1264,3.6756-.2529,1.8397-.1197,3.6702-.2952,3.6702-.2952-.4564-1.0823,5.4298-1.8553,5.0232-2.7647,0,0-1.927.5728-3.8674,1.1085-1.9413.5473-3.8824,1.0947-3.8824,1.0947-.2236-.5409.8274-1.4954,2.5706-2.3576a20.86717,20.86717,0,0,1,6.7454-1.9064c1.3631.2561-.7029,2.1098-.5483,2.4673a16.078,16.078,0,0,1,5.2759-1.2475l-2.0892.9205c2.9208-.0251,4.4349-2.1772,8.0176-1.6887,1.1873-.1329,3.7473.764,3.8463.0947-2.1292-.8761-3.1143-4.6149-1.9959-5.7353.4223.0309,6.3378.1605,7.779.4836,2.0984.5821-2.4964,2.7652-.7108,3.2727.0201-.3008,1.0244-.8535,1.4486-1.0489,1.2764.0142-.3506.9803,2.3052.3484.2564-1.1192,5.4525-.9785,1.1014-1.1248,2.5551-.8133,2.8157-.3348,5.874-.9904-1.104-.4729,2.3054-2.7999,4.8443-3.625-.1009.2886.5524.5036.8674.5976,5.3521-.9941,8.2951-1.1911,13.2596-2.2404.5068.1365,2.9589-.1021,2.0276.5308a9.90094,9.90094,0,0,1,2.7882-1.1445c3.133.1731-3.3821.871-.9167,1.3658.0749-.5964,3.7921-1.6277,5.8985-2.436-.8476-.6896-5.0693.9195-7.1761,1.7442-.2625-1.1853,3.2767-3.2251,8.3599-4.8144,4.0685-1.1282,1.9453.3638,2.6276.0553,7.7901-1.4251,6.1959-3.2821,12.8047-3.8051,2.7.1553.4027,1.3232,1.0739,1.6967-3.3029.9735-5.2491.6578-7.5209,1.1608l2.8731-.2623a15.96691,15.96691,0,0,1-4.4879,1.1663c2.2723.1749,13.1063-2.6642,19.1932-3.4085,1.014-.446,2.7989-1.0574,1.877-1.1283l-1.8707.4916c-1.8495-.1546,3.4061-1.4623.9607-1.2015a37.49469,37.49469,0,0,1,8.826-2.4659l.8196.5515a7.94288,7.94288,0,0,0-3.3828.4921c1.4259-.6051,5.6763-.2162,7.1168-1.4469l-2.606.0475c2.4743-.8739,5.4796-2.1992,8.6967-2.6201-1.5817-.3554-.7147.223-3.1328-.0929,2.1584.5632-8.1278,1.5508-4.7684,1.953-2.5091-.455-4.0845.4156-7.2837.1972.1437.2158,1.1676.2384-1.522.6423a3.53668,3.53668,0,0,1-.5402.3225c-.0831.0078-.1125.0107-.1837.0176l.1532-.0008c-.1081.058-.1167.0674.0567-.0011a4.82145,4.82145,0,0,1,1.434.0911c-1.2068.8007-5.4419,1.6408-6.8102,2.2224-1.6036.2047.6004-.414-.3173-.5l-2.0443.8688c-.328-.5008-4.3935-.0807-.7395-1.1396l-3.357.6344a25.10526,25.10526,0,0,0-6.4054,1.0448c-1.6078.1834-3.8547,1.4338-2.5755.7042l-5.1778,1.4038-.0803-.1397c-5.2047.9321-10.4512,3.1608-16.6196,3.2015a37.37989,37.37989,0,0,1-6.4295,1.4714l-.6887-.4509c-2.2031.6525-6.8197.7129-7.658,1.5031-2.7174-1.0976-10.8958,1.6199-14.8845,1.9677l-.0085.8192a82.99565,82.99565,0,0,0-8.5914,1.8793l.3219.6892c-2.8198,1.0223-7.5612.5822-12.153,1.2233.2757-.3246,1.4521-.4014,2.3022-.338-5.7055-.9492-11.4696,2.6178-16.6127,1.8252a6.47989,6.47989,0,0,1-3.0217.2396,1.25216,1.25216,0,0,0,.3055-.066c-.1286.0013-.3182.0154-.5121.033-.5606-.0873-1.1387-.1773-1.7625-.2744a7.96812,7.96812,0,0,0,1.488.2996c-.9589.1056-2.4077.2892-3.823.5775l-.6665-.7969-.3282.0449c-1.4183-.2204-1.1001.4697-.3097,1.0511a12.20987,12.20987,0,0,0-1.8608.6236c-1.2157-1.3111-3.7368.6484-5.3569-.7565-.4662.3691-2.2561.5497-4.0225.8348-1.765.2655-3.5084.5995-3.8873,1.3663-.0504-.1972-.4737-.2876.3009-.3067a12.88106,12.88106,0,0,0-4.6309.0557l-.6587-1.1085s-.8746.365-1.7532.6942c-.8829.3384-1.7659.6767-1.7659.6767-2.0971-.7475-2.9326-1.1959-.8135-1.9472-5.0991,1.0256-4.0933.2743-8.4881,1.197l.2786-.6999c-1.5182-.1258-4.0787.5528-4.917-.1782-1.5999-.9293-5.7642-1.568-10.4141-2.8141-4.6391-1.1944-9.7819-3.1841-12.8506-5.878.1187,1.3419-.59.6501-1.4095-.2481a11.40609,11.40609,0,0,0-1.203-1.2838c-.3722-.335-.7406-.4775-1.0734-.2016-.0551-.683-.5993-1.6051.5936-1.137a9.50427,9.50427,0,0,1-2.9905-3.2753,7.89774,7.89774,0,0,0-2.1716-2.7157c.3393-.5332.9945.3933,1.1447-.0398-.2298-.179-.7674-.8277-.5758-1.2349.2004-.3871.565.3293.9161.7074a5.74649,5.74649,0,0,0-1.6722-2.7298,4.56811,4.56811,0,0,0-2.1531-.8024c.7327-2.0401.8644-2.8766.3157-4.6534.3515-.2884.7179-.6756.9588-.6685.2211.0011.2669.3775.0095,1.5792a24.77779,24.77779,0,0,1,2.0552-4.3472c.998-1.7394,2.1045-3.2875,1.6912-3.7322a5.54067,5.54067,0,0,0,1.6182-1.8987,28.57478,28.57478,0,0,1,2.6808-2.3074c.7265-.5611,1.4352-1.1321,2.8048-2.1066,0,0-.2224.0872-.4448.1745-.2245.0854-.4437.1802-.4437.1802.3005-1.9509,2.1798-1.8925,4.5488-3.2622l-.0049.1681c3.0724-.8869,3.6684-1.1318,4.2604-1.4829a3.92654,3.92654,0,0,1,1.2132-.4751,14.96848,14.96848,0,0,1,3.1213-.3765l-.5363-.8071c.0572-.9977,1.5217-1.0948,3.3686-.8715l1.4306.1383c.4892.0303.9866.0758,1.4803.1439a8.79405,8.79405,0,0,0,2.8527-.1134l-.2016-.0896c-.1226-.042-.2862-.0979-.4499-.1539-.3312-.1111-.6626-.2221-.6626-.2221.9903-.4459,2.407.3372,3.6765,1.1484.6443.3872,1.221.9647,1.7582,1.3555a6.94461,6.94461,0,0,0,1.4241.8855c.1655.1305.0055.1591-.2585.1536-.2683.0052-.6601.0264-.9311.0471.271.1096.5089.1998.7193.2734.2016.0905.3763.1688.5279.2369a2.17117,2.17117,0,0,0,.6777.1909c.317.0163.4048-.1603.4686-.388a1.16836,1.16836,0,0,1,.3428-.694,1.65,1.65,0,0,1,1.537-.044c.3629.8148-1.2637,1.2643.7346,2.1278a3.035,3.035,0,0,0,1.3502.585,16.47636,16.47636,0,0,1,2.3982.7695,6.597,6.597,0,0,1,1.2956.6522,6.70675,6.70675,0,0,1,1.2116.8335,4.74525,4.74525,0,0,1,1.5259,2.1941c-.0185-.8346-.099-1.7481,1.1929-.647a6.609,6.609,0,0,1,.6073.8359,9.8284,9.8284,0,0,1,.4735,1.0742c.1426.3781.29.7687.4393,1.1646.1113.4113.224.828.3361,1.2424.2677.7981.4455,1.6189.742,2.3232a5.22689,5.22689,0,0,0,1.1724,1.7894c-.0375.3534-.1263.5033-.239.5465a10.19552,10.19552,0,0,1,.6802,1.7519c.1148.3465.2349.7086.3564,1.0757.0953.3766.1916.7585.2865,1.1343a16.58708,16.58708,0,0,0,1.1355,3.5936,3.42813,3.42813,0,0,0-1.1852,2.759,15.46157,15.46157,0,0,0-.1482,2.0508c-.0016.7284-.0907,1.4728-.112,2.2193a16.84162,16.84162,0,0,1-.2201,2.1379,8.08889,8.08889,0,0,1-.3971,1.7761c-.3613.9902-.8043,1.5452-1.4472,1.2843,0,0-.0292.0924-.0801.2542l-.2625.6491c-.2275.5316-.4793,1.2692-.8137,1.9648-.3428.6927-.6853,1.3854-.9425,1.905-.296.496-.4934.8266-.4934.8266l-.1527-.2835a30.71091,30.71091,0,0,0-2.2677,3.6434,11.31815,11.31815,0,0,0-.9816,2.3806c-.8088.4987-.4883-.1456-.5337-.2935-1.162.8649-2.0098,1.5678-2.8064,2.0493-.3831.26-.7221.5047-1.0327.7467-.315.2354-.6335.4186-.9207.6404-.5941.4096-1.085.9527-1.7606,1.4412-.6735.5054-1.3595,1.2189-2.4713,1.9554l-.8022-.6213a4.81116,4.81116,0,0,1-1.9038.6966c-.9536.2154-2.1633.4523-3.5293.6316-2.7206.4106-5.9684.7874-8.9022,1.5111.05-.101.1595-.2767.6168-.4424-3.2853.8471-7.3788.3439-10.8525-.1186-3.4918-.4953-6.4331-.8254-7.8711.4684,0,0-1.154.0413-2.3082.0827l-2.3167.0174c5.8402,1.1101-1.0681,1.1262,1.2813,1.9739-2.3728-.1674-5.859-1.871-2.9903-1.5125l.4203.2205c.6446-.6582-1.1518-1.1077-3.0638-1.5174-1.9101-.4308-3.9373-.8563-3.7537-1.3332-11.4636-2.2975-22.2613-6.2645-32.7993-9.4898l.9027,1.3673-3.6647-1.1936c-.8931-.5285-1.0514-1.166,1.5622-.3215-1.2042-.9749-4.5536-.8898-4.6961-.7102-5.0131-1.9998,2.3727-.5029.8042-1.0217l-2.1644-.5903.446.2624c-1.8631-.1433-2.1515.2173-5.2906-.8272-1.9341-.8206-.8336-.904-1.6078-1.1883.0266-.065-.2289-.1796-1.1968-.4076l-4.6119-1.5451,1.6152,1.313c-2.1718-.3014-4.3439-1.4378-2.4757.0648-2.7208-2.263-17.1466-5.9925-18.9674-6.9508-.7603-.1075-1.5076-.2459-2.2561-.4109-.7633-.1493-1.5289-.3221-2.3081-.5184-.7795-.1959-1.5741-.4139-2.3978-.6504q-.6168-.18045-1.2592-.3682-.6507-.1593-1.3315-.3258c.8755.3372,1.2238,1.1706-1.8728.3528.7457-.5877-.6546-1.0751-2.5399-1.611a24.06534,24.06534,0,0,1-5.5002-1.6273c2.2193.9097-9.1739-.9302-5.6347.4062-2.6648-.3483-.1064-.5234-2.1179-.9869-3.2282-.0107-6.7505-.2215-10.4788-.2947a76.387,76.387,0,0,0-11.5885.5652c-.1078.1534,1.2267.2236-.4369.6222,0,0-1.0554-.0561-2.111-.1124-1.0566-.0445-2.1108-.0275-2.1108-.0275-1.5372.3361-1.3169.9453-4.1925,1.0133.4135.0274,1.0287.0753.0099.315a107.21,107.21,0,0,0-22.6512,6.1832,170.503,170.503,0,0,0-21.4347,9.903c1.8679-.9941.6538-.2735-.7432.5359.9181-.5089.0278.0989.2324.0426,0,0-.3578.1961-.8945.4901-.5314.304-1.2397.7094-1.9481,1.1147-1.4058.8296-2.7893,1.6963-2.7893,1.6963-.4692.3726-1.9388,1.3216-3.3221,2.2848-1.388.9566-2.6896,1.924-2.9551,2.1375l1.6703-1.2145c-1.107.8139-.3117.2738.7457-.3987a15.18875,15.18875,0,0,1,2.2582-1.2907c1.2801-.8465,3.0284-1.8695,5.0378-2.9242,2.005-1.064,4.2588-2.1696,6.4394-3.4239,1.0193-.4447-.8077.4982-.2479.2886a39.01054,39.01054,0,0,1,5.0746-2.508l-.2803.1607c1.8319-.8064,3.3934-1.5152,4.8758-2.0853.7379-.2914,1.4461-.5711,2.1434-.8464.7057-.2516,1.4002-.4994,2.1022-.7497,2.8028-1.0072,5.7754-1.9069,10.0851-3.1107l-.714-.0613a28.02718,28.02718,0,0,1,3.1666-.6878c1.0063-.4937-.2981-.143-1.6292.2138-1.3365.3363-2.6692.7782-1.7765.2586a30.14317,30.14317,0,0,0,3.1768-.6559c1.3738-.362,2.9987-.7513,4.601-1.1219,1.5949-.4013,3.1877-.6931,4.4861-.9021a8.31641,8.31641,0,0,1,2.7712-.1711c2.912-.4622-.926-.2399,1.9877-.7108l.8086.0853.6899-.3952c1.9266-.224,2.9363-.0438,3.0329.1317-.4678.0329-1.313.209-1.8085.283a44.701,44.701,0,0,0,4.5443-.4504c1.5447-.1643,2.8836-.3412,3.3147-.3283l-2.8282.0745c1.9944-.2059,4.0995-.441,6.2665-.4911,1.0825-.0362,2.1763-.1073,3.2766-.1127,1.1002.0056,2.2056.0113,3.3091.017,1.1031-.0153,2.2026.0301,3.292.0867,1.0897.0392,2.17.0781,3.2333.1163,2.1216.1465,4.18.2491,6.1179.3237l-.5587-.3005a31.75819,31.75819,0,0,1,5.3593.7123,52.14,52.14,0,0,0,5.7089,1.226l-.2432.0109a23.32109,23.32109,0,0,1,4.7527.8194c-1.656-.121,2.8423,1.3099.6813,1.0933,6.2513,1.3714,3.1125.517,7.4744.8783l.8059.729a13.93368,13.93368,0,0,1,4.854.8544c-2.6796-.4941,1.7771,1.3239-1.2463.8384,6.22,3.1869,10.0328,2.3304,12.5585,4.7931,3.42-.233-5.4303-2.6291-3.66-2.3207-1.2778-.8763,2.7879-.0868,4.8043.7253,2.0873.7233,3.0187,2.8268,8.2865,4.6084-.5214-.1851-.5897-.0979-1.1098-.2823,1.8569,1.0141,4.0114.855,6.249,2.2298,1.6235-.3626,3.1318,1.1015,3.8623.1792l-4.9207-1.3688c2.8296.657,5.8029.2631,10.1466,2.3235a12.60132,12.60132,0,0,1-2.8386-.1934c1.2271.7454,2.6171.6265,3.8938,1.3893-.736.9623-5.9796-1.6832-9.1762-1.8721,1.2741.9266,5.8133,1.095,3.9657,1.7502,2.5961-.7664,5.1554,1.9239,9.114,1.922l-.4405.5858a14.912,14.912,0,0,1,2.9264.4814l-2.1638.2622c3.1416.1876,5.4475,2.4249,8.3972,2.8651-5.9163-1.7674-1.0899-1.2201-3.4388-2.4688,7.5402,1.2407,3.6496,3.0878,11.9959,5.0598-1.1537-.193-4.0838-1.579-2.2542-1.4153a24.0352,24.0352,0,0,1,4.4168,2.0333c5.556,1.2456-.6668-.9512,1.7881-.8008,1.6622,1.3542,2.791.3178,5.2718.5789l-.1447.7494c3.1143.9481,3.6256.6209,4.0375.3179.4162-.3068.743-.6166,3.5543.2037l-2.6206.6035,3.0513.2904-.7709.7551a25.79952,25.79952,0,0,1,7.616.9593c-.6869-.6614.593-1.3375,3.4642-1.0837,1.9259.6526-1.1803.6959,2.9437.8934a3.62263,3.62263,0,0,1-3.7676.0584c-.2078.2389-.9656.3984-1.1834.6316,2.0812.8009,5.3938.6546,6.9063.7127a6.77519,6.77519,0,0,1-1.6248-.2902s.3805-.0417.9515-.1041c.571-.0813,1.3326-.1897,2.0941-.298,1.5159-.1991,3.0245-.5053,3.0245-.5053.9526.3042.2039.5506-.5506.7896,1.2352-.0982,2.0758-.427,3.8806-.5939a3.76882,3.76882,0,0,1-.637.9893,3.91015,3.91015,0,0,1-2.2558.7271s1.4652-.1567,2.9296-.4228c.729-.124,1.4578-.248,2.0045-.341l.9091-.1928c.4089.258,3.1115.5343,2.3729.8475a12.9294,12.9294,0,0,0,2.7287-.3887c.97-.2177,1.9842-.609,3.025-.951a46.38663,46.38663,0,0,1,6.4248-2.0434,5.84136,5.84136,0,0,1,1.4262-.879c3.8828-1.232,8.2543-2.4711,11.5554-6.6783,0,0,.7693-.2722,1.5388-.5442.3995-.132.7485-.3163,1.0343-.4372l.4669-.2126c1.3305-1.6428.3194-1.1358-.4375-.9343-.3809.1025-.7022.1318-.6663-.1897a2.16652,2.16652,0,0,1,.355-.7781c.2243-.3746.6078-.844,1.0499-1.5464a8.78007,8.78007,0,0,1,1.3916-1.7952c.3039-.2838.4948-.303.6629-.2232.3333.1545.5279.6941,1.1375.0817.1898-.5852.415-1.2794.667-2.0561.2092-.7866.4499-1.6387.7603-2.5124a25.03453,25.03453,0,0,1,2.4764-5.5381A17.59346,17.59346,0,0,1,508.9647,636.7775Zm-11.2025-44.4644c.9063.3904,2.9865,1.0134,3.1751,1.9701a2.473,2.473,0,0,1-1.6772-.5061C498.8106,593.4333,498.3942,592.9121,497.7622,592.3131Zm-53.0981,30.1321a2.20629,2.20629,0,0,1-.3573-1.2837,5.37279,5.37279,0,0,1,.2055-1.7306c.0474.4412.0692.9089.1157,1.4079C444.6609,621.3385,444.6424,621.8747,444.6641,622.4452Zm176.5753.7404a.65318.65318,0,0,0-.0827.0472C619.2524,623.363,619.9299,623.326,621.2394,623.1856Zm3.9048-.5045c.369-.1606.3247-.2377.1435-.2887a6.16227,6.16227,0,0,1-2.0917.5405A3.26576,3.26576,0,0,0,625.1442,622.6811ZM393.7305,636.6052l.6742.3925C392.7043,636.6526,393.2167,636.6389,393.7305,636.6052Z" transform="translate(-242.3158 -139.1551)"/><path class="cls-7" d="M443.7094,613.8058a.76851.76851,0,0,1,.5858-.2767C444.2635,613.1296,444.0774,613.0553,443.7094,613.8058Z" transform="translate(-242.3158 -139.1551)"/><path class="cls-7" d="M486.9416,657.319l-.1419.0337a.35608.35608,0,0,0-.0923.1869Z" transform="translate(-242.3158 -139.1551)"/><path class="cls-7" d="M566.7311,640.7174a5.16437,5.16437,0,0,1-1.6085-.0983C565.112,640.8119,565.5024,640.8994,566.7311,640.7174Z" transform="translate(-242.3158 -139.1551)"/><path class="cls-7" d="M645.3454,617.707l-2.4378.6204a10.40973,10.40973,0,0,1,2.2596-.2588C645.0857,617.9548,644.5756,617.8657,645.3454,617.707Z" transform="translate(-242.3158 -139.1551)"/><path class="cls-7" d="M667.3835,616.4019c.3469-.1336.7601-.1712,1.1021-.3043l-.1435-.1889C666.8146,616.2501,665.7829,616.6548,667.3835,616.4019Z" transform="translate(-242.3158 -139.1551)"/><path class="cls-7" d="M648.0054,619.0093c.29.4017,1.8015-.0701,3.5088-.5054-.1032.023-.2008.047-.305.063C651.5881,617.8595,649.7916,618.4305,648.0054,619.0093Z" transform="translate(-242.3158 -139.1551)"/><path class="cls-7" d="M651.9112,618.4068c.5272-.1298,1.0674-.2528,1.5918-.3396C653.6537,617.7874,652.8457,618.1499,651.9112,618.4068Z" transform="translate(-242.3158 -139.1551)"/><path class="cls-7" d="M629.9564,621.381c.8457-.0366.3802-.7265.8866-.6182C631.6239,619.9567,625.5419,622.5942,629.9564,621.381Z" transform="translate(-242.3158 -139.1551)"/><polygon class="cls-7" points="407.396 481.009 406.662 480.599 405.791 481.243 407.396 481.009"/><path class="cls-7" d="M636.0238,622.6502l2.7875-.4212c-.0622-.0881.2752-.2189.6955-.3526C637.8064,622.2155,635.922,622.4898,636.0238,622.6502Z" transform="translate(-242.3158 -139.1551)"/><path class="cls-7" d="M639.5068,621.8764a13.57874,13.57874,0,0,0,2.1957-.5619C641.2262,621.4223,640.2009,621.6565,639.5068,621.8764Z" transform="translate(-242.3158 -139.1551)"/><polygon class="cls-7" points="403.671 481.984 402.833 482.044 400.882 482.421 403.671 481.984"/><path class="cls-7" d="M606.3995,628.7644l-2.9636.8271c-.2562.2998.593.2697,1.6919-.0604C605.8124,629.2158,606.9082,628.8917,606.3995,628.7644Z" transform="translate(-242.3158 -139.1551)"/><path class="cls-7" d="M615.869,628.6402a3.32466,3.32466,0,0,1-1.4294-.2085l.0815.8316Z" transform="translate(-242.3158 -139.1551)"/><path class="cls-7" d="M607.1598,630.7437c-.2499.2954-4.2106,1.6285-.4203.7366C606.9941,631.1809,609.9582,630.3301,607.1598,630.7437Z" transform="translate(-242.3158 -139.1551)"/><polygon class="cls-7" points="319.26 499.748 320.029 499.606 319.641 498.021 319.26 499.748"/><path class="cls-7" d="M521.382,648.2481c3.7146.1242.7952-1.1373,4.1539-.9079.8265-.4857-2.7435-.1857-1.8893-.6277C521.466,647.3214,520.2805,647.1641,521.382,648.2481Z" transform="translate(-242.3158 -139.1551)"/><path class="cls-7" d="M523.6466,646.7125a10.76234,10.76234,0,0,0,1.1075-.3607A6.73057,6.73057,0,0,0,523.6466,646.7125Z" transform="translate(-242.3158 -139.1551)"/><path class="cls-7" d="M256.583,647.7006s-.4768.3415-.9535.683c-.4731.3465-.9462.6931-.9462.6931l1.232-.8792Z" transform="translate(-242.3158 -139.1551)"/><path class="cls-7" d="M252.9922,650.4151l-.4442.327-1.088.8918C251.866,651.2948,252.6684,650.6541,252.9922,650.4151Z" transform="translate(-242.3158 -139.1551)"/><path class="cls-7" d="M491.4931,586.9386l-.2941.2268c.3467.4183.9894.5812,2.2398,1.1381,0,0-.4772-.3614-.9542-.7228a7.51355,7.51355,0,0,0-.6781-.4481C491.6186,587.0161,491.4931,586.9386,491.4931,586.9386Z" transform="translate(-242.3158 -139.1551)"/><polygon class="cls-7" points="270.935 477.257 270.893 476.624 269.936 477.886 270.935 477.257"/><path class="cls-7" d="M506.1124,646.0693a37.86337,37.86337,0,0,0,2.2385-3.5009C507.0013,645.1076,504.8413,645.5555,506.1124,646.0693Z" transform="translate(-242.3158 -139.1551)"/><path class="cls-7" d="M272.9499,516.7347s24.3974-132.7617,111.818-245.1959c0,0-92.122,144.2263-104.4726,252.563a7.52079,7.52079,0,0,0,10.8263,7.5605c17.3714-8.6115,48.6621-26.367,58.7777-46.7901,13.2827-26.8167,150.3481-345.7171,150.3481-345.7171S270.1349,296.7248,272.9499,516.7347Z" transform="translate(-242.3158 -139.1551)"/><path class="cls-7" d="M265.3386,532.6212l-12.7662,42.2191a9.73807,9.73807,0,0,0-.3686,2.6535v1.6809a9.74089,9.74089,0,0,0,4.0466,7.9032l1.3659.984c5.4943,2.0417,10.9751-1.6257,11.2871-2.4666.8912-2.4028,22.5027-46.4386,22.5027-46.4386C275.8102,546.7319,265.3386,532.6212,265.3386,532.6212Z" transform="translate(-242.3158 -139.1551)"/><path class="cls-7" d="M256.4762,591.7754l-5.8785,13.2602a3.27625,3.27625,0,1,1-1.7224-.4732l5.1183-14.3434c-3.5495-3.1194-4.5482-8.4333-4.5482-8.4333l-7.1296,23.9139v21.6317l14.408-17.0273,10.6944-20.2004C262.6589,592.7686,259.1098,592.8658,256.4762,591.7754Z" transform="translate(-242.3158 -139.1551)"/></svg>