<svg id="Layer_1" data-name="Layer 1" xmlns="http://www.w3.org/2000/svg" viewBox="0 0 70.46762 98.53578"><defs><style>.cls-1{fill:#fff;}</style></defs><path class="cls-1" d="M78.482,58.875a10.20449,10.20449,0,0,0-2.502.47A6.99637,6.99637,0,0,0,64.57,54.459,7.01275,7.01275,0,0,0,58,49.875a8.68744,8.68744,0,0,0-5,1.572V33.375c0-4.486-2.621-7.5-6.521-7.5-3.919,0-6.763,3.154-6.763,7.503l.096,42.239-5.76-6.045A8.18885,8.18885,0,0,0,22.436,81.117c.052.059,5.26905,5.875,12.712,13.318l1.211,1.215c7.058,7.096,13.152,13.225,25.35,13.225,12.629,0,16.854-6.338,20.1-12.83,3.122-6.244,3.158-30.156,3.158-31.17C84.965,61.678,81.936,58.875,78.482,58.875Z" transform="translate(-14.49936 -10.33922)"/><path class="cls-1" d="M26,19h4V49.375a2,2,0,0,0,4,0V19h4a1.30893,1.30893,0,0,0,1.061-2.28l-6-5.95294A1.50033,1.50033,0,0,0,30.94,10.79l-6,6.012a1.22291,1.22291,0,0,0-.325,1.454A1.35324,1.35324,0,0,0,26,19Z" transform="translate(-14.49936 -10.33922)"/><path class="cls-1" d="M23.061,62.936l6-6a1.81808,1.81808,0,0,0,.325-1.822A1.69573,1.69573,0,0,0,28,54H24V24.375a2.15078,2.15078,0,0,0-2-2,2.15078,2.15078,0,0,0-2,2V54H16a1.69629,1.69629,0,0,0-1.386,1.113,1.65362,1.65362,0,0,0,.325,1.728l6,6.047A1.5012,1.5012,0,0,0,23.061,62.936Z" transform="translate(-14.49936 -10.33922)"/></svg>