<svg id="Camada_1" data-name="Camada 1" xmlns="http://www.w3.org/2000/svg" viewBox="0 0 979.90013 855.19998"><defs><style>.cls-1{fill:#fff;}</style></defs><path class="cls-1" d="M820,382.7c-.7,9.1-1.6,18.6-3.1,28.5C793.1,576,662.5,695.6,506.4,695.6H455.5l-9.3,9.7c35.1,65.1,100.3,107.6,173.5,107.6h50.5l100,104.4a33.613,33.613,0,0,0,24.2,10.3,34.25341,34.25341,0,0,0,12.5-2.4,33.44631,33.44631,0,0,0,21-31v-85.4c93.1-19.3,162-106.8,162-212.4C990,488.3,916.1,398.8,820,382.7Z" transform="translate(-10 -72.4)"/><path class="cls-1" d="M769.2,404.4a314.404,314.404,0,0,0,3.4-44.5c0-158.5-119.5-287.5-266.3-287.5H276.3C129.5,72.4,10,201.4,10,359.9c0,142.3,94,259.7,220.1,283.2V764.3a39.10784,39.10784,0,0,0,24.5,36.2,38.54566,38.54566,0,0,0,14.5,2.8,39.05047,39.05047,0,0,0,28.2-12L435,647.4h71.4C638.4,647.4,748.9,545.2,769.2,404.4ZM202.3,271H576.6c10.5,0,19,9,19,20.1s-8.5,20.1-19,20.1H202.3c-10.5,0-19-9-19-20.1S191.8,271,202.3,271ZM427,457.3H202.3c-10.5,0-19-9-19-20,0-11.1,8.5-20.1,19-20.1H427c10.5,0,19,9,19,20.1C446,448.3,437.5,457.3,427,457.3Z" transform="translate(-10 -72.4)"/></svg>