<svg id="Layer_1" data-name="Layer 1" xmlns="http://www.w3.org/2000/svg" viewBox="0 0 461.00104 326.21601"><defs><style>.cls-1{fill:#fff;}</style></defs><path class="cls-1" d="M365.257,67.393H95.744A95.74394,95.74394,0,0,0,0,163.137V297.865a95.744,95.744,0,0,0,95.744,95.744H365.257a95.744,95.744,0,0,0,95.744-95.744V163.137A95.744,95.744,0,0,0,365.257,67.393ZM300.506,237.056l-126.06,60.123a5.06043,5.06043,0,0,1-7.239-4.568V168.607a5.06046,5.06046,0,0,1,7.348-4.514l126.06,63.881A5.06058,5.06058,0,0,1,300.506,237.056Z" transform="translate(0 -67.393)"/></svg>