<?xml version="1.0" encoding="utf-8"?>
<!-- Generator: Adobe Illustrator 26.0.3, SVG Export Plug-In . SVG Version: 6.00 Build 0)  -->
<svg version="1.1" id="Camada_1" xmlns="http://www.w3.org/2000/svg" xmlns:xlink="http://www.w3.org/1999/xlink" x="0px" y="0px"
	 viewBox="0 0 19.7 23.4" style="enable-background:new 0 0 19.7 23.4;" xml:space="preserve">
<style type="text/css">
	.st0{fill-rule:evenodd;clip-rule:evenodd;fill:#00DB29;}
</style>
<g id="Camada_2_00000148643885643539690400000017418018507053107338_">
	<g id="Camada_1-2">
		<path class="st0" d="M18.3,16.6L18.3,16.6c-0.8,0-1.5-0.6-1.5-1.4V9c0-0.8,0.6-1.4,1.4-1.4c0,0,0,0,0,0h0c0.8,0,1.4,0.6,1.4,1.4
			l0,0v6.1C19.7,15.9,19,16.6,18.3,16.6C18.3,16.6,18.3,16.6,18.3,16.6z M15,18.8h-1.3l0.1,3.2c0,0.8-0.6,1.4-1.4,1.4
			s-1.4-0.6-1.4-1.4l0-3.2H8.9l0,3.2c0,0.8-0.6,1.4-1.4,1.4S6,22.8,6,22l0-3.2H4.8c-0.7,0-1.3-0.6-1.3-1.3l0,0V7.9h12.8v9.6
			C16.3,18.2,15.7,18.8,15,18.8L15,18.8z M6.8,2.3c0,0-1.1-2-1.2-2.1S5.8-0.1,5.8,0c0.1,0.1,1.3,2.1,1.3,2.1
			c1.7-0.8,3.7-0.9,5.4-0.1c0,0,1.2-2,1.3-2.1c0.1-0.1,0.3,0.1,0.2,0.2c-0.1,0.1-1.2,2.1-1.2,2.1c1.9,1,3.2,2.9,3.4,5.1l-12.7,0
			C3.7,5.2,5,3.3,6.8,2.3z M12.7,5.1c0.3,0,0.6-0.3,0.6-0.6S13,3.9,12.7,3.9c-0.3,0-0.6,0.3-0.6,0.6c0,0,0,0,0,0
			C12.1,4.9,12.4,5.1,12.7,5.1C12.7,5.1,12.7,5.1,12.7,5.1L12.7,5.1z M6.9,5.1c0.3,0,0.6-0.3,0.6-0.6c0-0.3-0.3-0.6-0.6-0.6
			c-0.3,0-0.6,0.3-0.6,0.6c0,0,0,0,0,0C6.3,4.9,6.6,5.1,6.9,5.1L6.9,5.1z M1.5,16.6L1.5,16.6c-0.8,0-1.5-0.6-1.5-1.4V9
			c0-0.8,0.6-1.4,1.4-1.4c0,0,0,0,0,0h0c0.8,0,1.4,0.6,1.4,1.4c0,0,0,0,0,0v6.1C2.9,15.9,2.2,16.6,1.5,16.6z"/>
	</g>
</g>
</svg>
