<svg xmlns="http://www.w3.org/2000/svg" viewBox="0 0 19.68341 23.43739"><defs><style>.cls-1{fill:#00f429;fill-rule:evenodd;}</style></defs><g id="Camada_2" data-name="Camada 2"><g id="Camada_1-2" data-name="Camada 1"><path class="cls-1" d="M18.26455,16.5752h-.04083A1.42,1.42,0,0,1,16.805,15.15406V9.03032a1.41989,1.41989,0,0,1,1.41876-1.42114h.04083a1.42,1.42,0,0,1,1.41886,1.42114v6.12374A1.42,1.42,0,0,1,18.26455,16.5752Zm-3.31267,2.262H13.61442l.07919,3.15777a1.43927,1.43927,0,1,1-2.87854,0l-.04825-3.15777H8.8514l.01868,3.15777a1.43927,1.43927,0,1,1-2.87854,0l.01227-3.15777H4.81108A1.31053,1.31053,0,0,1,3.502,17.52522V7.92146H16.261v9.60376A1.31053,1.31053,0,0,1,14.95188,18.83715ZM6.82437,2.30849S5.70013.35608,5.60254.20245,5.7709-.06909,5.836.04654c.0651.11554,1.26478,2.11913,1.26478,2.11913a6.38211,6.38211,0,0,1,5.45-.05283S13.785.14047,13.84924.04654c.06427-.094.28949.05072.23337.15591-.056.1051-1.23768,2.05568-1.23768,2.05568a6.39647,6.39647,0,0,1,3.3872,5.0515L3.52644,7.35806A6.39563,6.39563,0,0,1,6.82437,2.30849Zm5.897,2.80484a.58469.58469,0,1,0-.58272-.58465A.58362.58362,0,0,0,12.72134,5.11333Zm-5.83535,0a.58469.58469,0,1,0-.58382-.58465A.58425.58425,0,0,0,6.886,5.11333ZM1.45959,16.5752H1.41876A1.42,1.42,0,0,1,0,15.15406V9.03032A1.41989,1.41989,0,0,1,1.41876,7.60918h.04083A1.41989,1.41989,0,0,1,2.87836,9.03032v6.12374A1.42,1.42,0,0,1,1.45959,16.5752Z"/></g></g></svg>